<svg width="13" height="14" viewBox="0 0 13 14" fill="none" xmlns="http://www.w3.org/2000/svg">
<path d="M0.859812 7.45224C0.528211 6.87789 0.724998 6.14348 1.29935 5.81188L10.8346 0.306711C11.4089 -0.0248892 12.1433 0.171897 12.4749 0.746246C12.8065 1.3206 12.6098 2.05501 12.0354 2.38661L2.50018 7.89178C1.92583 8.22338 1.19141 8.02659 0.859812 7.45224Z" fill="#141617"/>
<path d="M0.859812 6.24599C1.19141 5.67164 1.92583 5.47485 2.50018 5.80645L12.0354 11.3116C12.6098 11.6432 12.8065 12.3776 12.4749 12.952C12.1433 13.5263 11.4089 13.7231 10.8346 13.3915L1.29935 7.88635C0.724998 7.55475 0.528211 6.82034 0.859812 6.24599Z" fill="#141617"/>
</svg>
