<svg width="10" height="9" viewBox="0 0 10 9" fill="none" xmlns="http://www.w3.org/2000/svg">
<path d="M5.44986 8.87855C5.02147 9.12856 4.47368 8.9802 4.22634 8.54717L0.120147 1.35818C-0.127187 0.925159 0.0195919 0.371453 0.447988 0.121447C0.876384 -0.128561 1.42417 0.0198039 1.67151 0.452829L5.7777 7.64182C6.02504 8.07484 5.87826 8.62855 5.44986 8.87855Z" fill="white"/>
<path d="M4.55014 8.87855C4.12174 8.62855 3.97496 8.07484 4.2223 7.64182L8.32849 0.452829C8.57583 0.0198036 9.12362 -0.128561 9.55201 0.121446C9.98041 0.371453 10.1272 0.925159 9.87985 1.35818L5.77366 8.54717C5.52632 8.9802 4.97853 9.12856 4.55014 8.87855Z" fill="white"/>
</svg>
