<svg width="27" height="27" viewBox="0 0 27 27" fill="none" xmlns="http://www.w3.org/2000/svg">
<path d="M19.9828 16.5596C19.9828 17.7423 20.3189 18.214 21.1978 18.214C23.1567 18.214 24.4041 15.7148 24.4041 11.5584C24.4041 5.20541 19.7803 2.16411 14.0077 2.16411C8.06906 2.16411 2.66766 6.15159 2.66766 13.6873C2.66766 20.885 7.39266 24.8049 14.6489 24.8049C17.1127 24.8049 18.7664 24.5346 21.2963 23.6898L21.8391 25.9524C19.3416 26.7649 16.6725 27 14.6152 27C5.09766 27 0 21.7622 0 13.6859C0 5.54193 5.90766 0 14.0414 0C22.5127 0 27 5.06884 27 11.2866C27 16.5582 25.3477 20.5795 20.1502 20.5795C17.7863 20.5795 16.2352 19.6333 16.0327 17.5368C15.4252 19.8684 13.8052 20.5795 11.61 20.5795C8.67375 20.5795 6.21 18.314 6.21 13.7534C6.21 9.1577 8.37141 6.31915 12.2527 6.31915C14.3114 6.31915 15.5939 7.13016 16.1648 8.41427L17.145 6.62328H19.98V16.5596H19.9828ZM15.833 12.099C15.833 10.2419 14.4478 9.46323 13.3003 9.46323C12.0516 9.46323 10.6692 10.4756 10.6692 13.4507C10.6692 15.8162 11.7155 17.1341 13.3003 17.1341C14.4141 17.1341 15.833 16.4244 15.833 14.4645V12.099Z" fill="white"/>
</svg>
