<svg width="27" height="26" viewBox="0 0 27 26" fill="none" xmlns="http://www.w3.org/2000/svg">
<path d="M25.1105 0.449585H1.94985C1.39287 0.449585 0.942871 0.899581 0.942871 1.45657V24.6172C0.942871 25.1742 1.39287 25.6242 1.94985 25.6242H25.1105C25.6675 25.6242 26.1175 25.1742 26.1175 24.6172V1.45657C26.1175 0.899581 25.6675 0.449585 25.1105 0.449585ZM22.2028 7.79742H20.192C18.6154 7.79742 18.3102 8.54636 18.3102 9.64775V12.0739H22.0738L21.5829 15.8722H18.3102V25.6242H14.3861V15.8753H11.104V12.0739H14.3861V9.27327C14.3861 6.02261 16.3717 4.25095 19.2731 4.25095C20.664 4.25095 21.8567 4.35479 22.2059 4.40199V7.79742H22.2028Z" fill="#2B2B2B"/>
</svg>
