<svg width="27" height="26" viewBox="0 0 27 26" fill="none" xmlns="http://www.w3.org/2000/svg">
<path d="M25.1105 0H1.94985C1.39287 0 0.942871 0.449996 0.942871 1.00698V24.1676C0.942871 24.7246 1.39287 25.1746 1.94985 25.1746H25.1105C25.6675 25.1746 26.1175 24.7246 26.1175 24.1676V1.00698C26.1175 0.449996 25.6675 0 25.1105 0ZM22.2028 7.34783H20.192C18.6154 7.34783 18.3102 8.09677 18.3102 9.19816V11.6244H22.0738L21.5829 15.4226H18.3102V25.1746H14.3861V15.4257H11.104V11.6244H14.3861V8.82369C14.3861 5.57302 16.3717 3.80136 19.2731 3.80136C20.664 3.80136 21.8567 3.90521 22.2059 3.95241V7.34783H22.2028Z" fill="white"/>
</svg>
