<svg width="60" height="60" viewBox="0 0 60 60" fill="none" xmlns="http://www.w3.org/2000/svg">
<path d="M25.6588 51.3149C31.3518 51.3138 36.8808 49.4081 41.3653 45.9012L55.4648 60L60 55.465L45.9005 41.3663C49.4093 36.8815 51.3163 31.3516 51.3177 25.6575C51.3177 11.5106 39.8065 0 25.6588 0C11.5112 0 0 11.5106 0 25.6575C0 39.8044 11.5112 51.3149 25.6588 51.3149ZM25.6588 6.41437C36.272 6.41437 44.903 15.0449 44.903 25.6575C44.903 36.27 36.272 44.9006 25.6588 44.9006C15.0457 44.9006 6.41471 36.27 6.41471 25.6575C6.41471 15.0449 15.0457 6.41437 25.6588 6.41437Z" fill="white"/>
</svg>
