<svg width="13" height="14" viewBox="0 0 13 14" fill="none" xmlns="http://www.w3.org/2000/svg">
<path d="M5.57463 11.3504C6.73651 11.3502 7.86492 10.9612 8.78016 10.2455L11.6577 13.1231L12.5833 12.1975L9.70576 9.31988C10.4219 8.40454 10.8111 7.27588 10.8114 6.11369C10.8114 3.22628 8.46203 0.876953 5.57463 0.876953C2.68722 0.876953 0.337891 3.22628 0.337891 6.11369C0.337891 9.00109 2.68722 11.3504 5.57463 11.3504ZM5.57463 2.18614C7.74067 2.18614 9.50218 3.94764 9.50218 6.11369C9.50218 8.27973 7.74067 10.0412 5.57463 10.0412C3.40858 10.0412 1.64707 8.27973 1.64707 6.11369C1.64707 3.94764 3.40858 2.18614 5.57463 2.18614Z" fill="#2B2B2B"/>
</svg>
