<svg width="26" height="26" viewBox="0 0 26 26" fill="none" xmlns="http://www.w3.org/2000/svg">
<path fill-rule="evenodd" clip-rule="evenodd" d="M0.471436 2.10322C0.471436 1.54542 0.693025 1.01045 1.08746 0.616022C1.48189 0.221592 2.01685 2.80389e-06 2.57466 2.80389e-06H23.5405C23.8169 -0.000448681 24.0907 0.053628 24.3463 0.159137C24.6018 0.264645 24.8339 0.419514 25.0295 0.614876C25.2251 0.810238 25.3802 1.04226 25.486 1.29765C25.5918 1.55304 25.6462 1.82679 25.646 2.10322V23.0691C25.6463 23.3456 25.5921 23.6194 25.4865 23.8749C25.3808 24.1304 25.2259 24.3626 25.0304 24.5582C24.8349 24.7537 24.6029 24.9088 24.3474 25.0146C24.0919 25.1204 23.8181 25.1747 23.5416 25.1746H2.57466C2.29836 25.1746 2.02477 25.1201 1.76952 25.0144C1.51428 24.9086 1.28237 24.7536 1.08705 24.5582C0.891733 24.3627 0.736835 24.1307 0.631206 23.8754C0.525576 23.6201 0.471286 23.3465 0.471436 23.0702V2.10322ZM10.436 9.59838H13.8449V11.3103C14.3369 10.3262 15.5956 9.44047 17.4872 9.44047C21.1134 9.44047 21.9728 11.4007 21.9728 14.9972V21.6593H18.303V15.8165C18.303 13.7682 17.811 12.6125 16.5614 12.6125C14.8278 12.6125 14.1069 13.8586 14.1069 15.8165V21.6593H10.436V9.59838ZM4.14235 21.5025H7.81326V9.44047H4.14235V21.5014V21.5025ZM8.33849 5.50637C8.34541 5.82068 8.28948 6.1332 8.17399 6.4256C8.05849 6.718 7.88575 6.98439 7.66591 7.20912C7.44607 7.43386 7.18355 7.61242 6.89376 7.73433C6.60398 7.85623 6.29276 7.91903 5.97837 7.91903C5.66399 7.91903 5.35277 7.85623 5.06299 7.73433C4.7732 7.61242 4.51068 7.43386 4.29084 7.20912C4.071 6.98439 3.89826 6.718 3.78276 6.4256C3.66727 6.1332 3.61134 5.82068 3.61826 5.50637C3.63184 4.88943 3.88646 4.30233 4.32759 3.87081C4.76872 3.43929 5.36128 3.19765 5.97837 3.19765C6.59547 3.19765 7.18803 3.43929 7.62916 3.87081C8.07029 4.30233 8.32491 4.88943 8.33849 5.50637Z" fill="white"/>
</svg>
