<svg width="26" height="26" viewBox="0 0 26 26" fill="none" xmlns="http://www.w3.org/2000/svg">
<path fill-rule="evenodd" clip-rule="evenodd" d="M0.471436 2.55281C0.471436 1.995 0.693025 1.46004 1.08746 1.06561C1.48189 0.671176 2.01685 0.449588 2.57466 0.449588H23.5405C23.8169 0.449136 24.0907 0.503213 24.3463 0.608722C24.6018 0.71423 24.8339 0.869099 25.0295 1.06446C25.2251 1.25982 25.3802 1.49184 25.486 1.74723C25.5918 2.00263 25.6462 2.27638 25.646 2.55281V23.5187C25.6463 23.7951 25.5921 24.069 25.4865 24.3245C25.3808 24.58 25.2259 24.8122 25.0304 25.0077C24.8349 25.2033 24.6029 25.3584 24.3474 25.4642C24.0919 25.57 23.8181 25.6243 23.5416 25.6242H2.57466C2.29836 25.6242 2.02477 25.5697 1.76952 25.464C1.51428 25.3582 1.28237 25.2032 1.08705 25.0077C0.891733 24.8123 0.736835 24.5803 0.631206 24.325C0.525576 24.0697 0.471286 23.7961 0.471436 23.5198V2.55281ZM10.436 10.048H13.8449V11.7598C14.3369 10.7757 15.5956 9.89006 17.4872 9.89006C21.1134 9.89006 21.9728 11.8502 21.9728 15.4468V22.1089H18.303V16.2661C18.303 14.2178 17.811 13.0621 16.5614 13.0621C14.8278 13.0621 14.1069 14.3082 14.1069 16.2661V22.1089H10.436V10.048ZM4.14235 21.9521H7.81326V9.89006H4.14235V21.951V21.9521ZM8.33849 5.95595C8.34541 6.27026 8.28948 6.58279 8.17399 6.87519C8.05849 7.16759 7.88575 7.43397 7.66591 7.65871C7.44607 7.88345 7.18355 8.06201 6.89376 8.18391C6.60398 8.30582 6.29276 8.36861 5.97837 8.36861C5.66399 8.36861 5.35277 8.30582 5.06299 8.18391C4.7732 8.06201 4.51068 7.88345 4.29084 7.65871C4.071 7.43397 3.89826 7.16759 3.78276 6.87519C3.66727 6.58279 3.61134 6.27026 3.61826 5.95595C3.63184 5.33901 3.88646 4.75191 4.32759 4.32039C4.76872 3.88887 5.36128 3.64724 5.97837 3.64724C6.59547 3.64724 7.18803 3.88887 7.62916 4.32039C8.07029 4.75191 8.32491 5.33901 8.33849 5.95595Z" fill="#2B2B2B"/>
</svg>
