<svg width="187" height="20" viewBox="0 0 187 20" fill="none" xmlns="http://www.w3.org/2000/svg">
<path d="M12.0522 3.28236H7.51995V15.609H4.47132V3.28236H0V0.812968H12.0522V3.28236Z" fill="#2B2B2B"/>
<path d="M11.036 10.0097C11.036 8.91893 11.2461 7.94676 11.6661 7.09314C12.0861 6.23953 12.6891 5.57899 13.4749 5.11154C14.2676 4.64408 15.1856 4.41035 16.2289 4.41035C17.7125 4.41035 18.9218 4.86426 19.8567 5.77207C20.7984 6.67989 21.3235 7.91289 21.4319 9.47107L21.4522 10.2231C21.4522 11.91 20.9813 13.2649 20.0397 14.2879C19.098 15.3041 17.8345 15.8122 16.2492 15.8122C14.6639 15.8122 13.397 15.3041 12.4486 14.2879C11.5069 13.2717 11.036 11.8897 11.036 10.1418V10.0097ZM13.9729 10.2231C13.9729 11.2664 14.1693 12.0658 14.5623 12.6213C14.9552 13.1701 15.5175 13.4445 16.2492 13.4445C16.9605 13.4445 17.5161 13.1735 17.9158 12.6315C18.3155 12.0827 18.5153 11.2088 18.5153 10.0097C18.5153 8.98668 18.3155 8.19404 17.9158 7.63173C17.5161 7.06943 16.9538 6.78828 16.2289 6.78828C15.5107 6.78828 14.9552 7.06943 14.5623 7.63173C14.1693 8.18726 13.9729 9.05104 13.9729 10.2231Z" fill="#2B2B2B"/>
<path d="M26.015 4.61359L26.1064 5.84321C26.8855 4.88797 27.939 4.41035 29.2668 4.41035C30.6828 4.41035 31.6549 4.96927 32.1834 6.0871C32.9557 4.96927 34.0566 4.41035 35.486 4.41035C36.6784 4.41035 37.5659 4.75925 38.1485 5.45705C38.7311 6.14807 39.0224 7.19138 39.0224 8.58697V15.609H36.0754V8.59713C36.0754 7.97386 35.9535 7.51995 35.7096 7.23541C35.4657 6.9441 35.0355 6.79844 34.419 6.79844C33.5383 6.79844 32.9286 7.21848 32.5898 8.05854L32.6 15.609H29.6632V8.6073C29.6632 7.97047 29.5378 7.50979 29.2872 7.22525C29.0365 6.94071 28.6097 6.79844 28.0067 6.79844C27.1734 6.79844 26.5705 7.14395 26.1979 7.83498V15.609H23.261V4.61359H26.015Z" fill="#2B2B2B"/>
<path d="M51.1966 10.2129C51.1966 11.9743 50.8206 13.3496 50.0686 14.3387C49.3167 15.3211 48.2666 15.8122 46.9184 15.8122C45.726 15.8122 44.7742 15.3549 44.0628 14.4403L43.9307 15.609H41.2886V0H44.2254V5.59932C44.9029 4.80667 45.7938 4.41035 46.8981 4.41035C48.2395 4.41035 49.2896 4.90491 50.0483 5.89402C50.8139 6.87635 51.1966 8.26178 51.1966 10.0503V10.2129ZM48.2598 9.9995C48.2598 8.88845 48.0837 8.07887 47.7314 7.57076C47.3791 7.05588 46.854 6.79844 46.1562 6.79844C45.2213 6.79844 44.5777 7.18122 44.2254 7.94676V12.286C44.5845 13.0583 45.2349 13.4445 46.1766 13.4445C47.125 13.4445 47.7483 12.977 48.0464 12.0421C48.1887 11.595 48.2598 10.9141 48.2598 9.9995Z" fill="#2B2B2B"/>
<path d="M58.0764 15.8122C56.464 15.8122 55.1497 15.3177 54.1335 14.3286C53.124 13.3394 52.6193 12.0218 52.6193 10.3755V10.091C52.6193 8.98668 52.8327 8.00096 53.2595 7.13379C53.6864 6.25985 54.2893 5.58915 55.0684 5.1217C55.8543 4.64747 56.7485 4.41035 57.7512 4.41035C59.2552 4.41035 60.4374 4.88458 61.2978 5.83304C62.1649 6.78151 62.5985 8.12629 62.5985 9.8674V11.0665H55.5968C55.6917 11.7846 55.9762 12.3605 56.4504 12.7941C56.9314 13.2277 57.5378 13.4445 58.2695 13.4445C59.4008 13.4445 60.2849 13.0346 60.9218 12.2148L62.3648 13.8306C61.9244 14.4539 61.3282 14.9417 60.5763 15.294C59.8243 15.6395 58.991 15.8122 58.0764 15.8122ZM57.741 6.78828C57.1584 6.78828 56.6842 6.98475 56.3183 7.37768C55.9593 7.77062 55.7289 8.33292 55.6273 9.06459H59.7125V8.83086C59.6989 8.18049 59.5228 7.67916 59.184 7.32687C58.8453 6.96781 58.3643 6.78828 57.741 6.78828Z" fill="#2B2B2B"/>
<path d="M70.4538 7.36752C70.0541 7.31332 69.7018 7.28622 69.3969 7.28622C68.2859 7.28622 67.5576 7.66222 67.2121 8.41422V15.609H64.2753V4.61359H67.0495L67.1308 5.9245C67.7202 4.91507 68.5366 4.41035 69.5799 4.41035C69.9051 4.41035 70.2099 4.45439 70.4945 4.54246L70.4538 7.36752Z" fill="#2B2B2B"/>
<path d="M71.2465 10.03C71.2465 8.34308 71.6462 6.98475 72.4456 5.95499C73.2518 4.92523 74.3357 4.41035 75.6974 4.41035C76.9034 4.41035 77.8417 4.82361 78.5124 5.65013L78.6343 4.61359H81.2968V15.2431C81.2968 16.2052 81.0766 17.0418 80.6362 17.7532C80.2026 18.4645 79.5895 19.0065 78.7969 19.3791C78.0042 19.7517 77.0761 19.938 76.0125 19.938C75.2063 19.938 74.4204 19.7754 73.6549 19.4503C72.8893 19.1318 72.3101 18.7186 71.9172 18.2105L73.2179 16.4219C73.9496 17.2417 74.8371 17.6516 75.8804 17.6516C76.6595 17.6516 77.2658 17.4415 77.6994 17.0215C78.133 16.6083 78.3498 16.0189 78.3498 15.2533V14.6639C77.6723 15.4295 76.7814 15.8122 75.6771 15.8122C74.3561 15.8122 73.2856 15.2973 72.4659 14.2676C71.6529 13.2311 71.2465 11.8592 71.2465 10.1519V10.03ZM74.1833 10.2434C74.1833 11.2393 74.3832 12.0218 74.7829 12.5908C75.1826 13.1531 75.7313 13.4343 76.4291 13.4343C77.3234 13.4343 77.9636 13.0989 78.3498 12.4282V7.80449C77.9568 7.13379 77.3234 6.79844 76.4494 6.79844C75.7449 6.79844 75.1893 7.08637 74.7829 7.66222C74.3832 8.23807 74.1833 9.09846 74.1833 10.2434Z" fill="#2B2B2B"/>
<path d="M88.3391 11.6254C88.3391 10.9412 88.5288 10.3078 88.9082 9.72513C89.2943 9.1425 89.9989 8.49551 91.0219 7.78417C90.5815 7.19476 90.236 6.64262 89.9854 6.12774C89.7347 5.60609 89.6094 5.06411 89.6094 4.50181C89.6094 3.3501 89.9718 2.41519 90.6967 1.69707C91.4284 0.972174 92.4107 0.609726 93.6437 0.609726C94.748 0.609726 95.6524 0.9383 96.357 1.59545C97.0683 2.2526 97.424 3.07234 97.424 4.05468C97.424 5.23348 96.8278 6.2734 95.6355 7.17444L94.4973 7.99757L97.048 10.9649C97.4477 10.179 97.6476 9.31187 97.6476 8.36341H100.147C100.147 10.2874 99.7037 11.8456 98.8162 13.038L101.032 15.609H97.6984L96.9362 14.735C95.8455 15.4532 94.5922 15.8122 93.1763 15.8122C91.7129 15.8122 90.5409 15.4295 89.6602 14.6639C88.7795 13.8916 88.3391 12.8788 88.3391 11.6254ZM93.3185 13.4546C94.0231 13.4546 94.6904 13.2581 95.3205 12.8652L92.4039 9.4914L92.1905 9.64383C91.5876 10.1587 91.2861 10.765 91.2861 11.4628C91.2861 12.0522 91.4724 12.5333 91.845 12.9059C92.2244 13.2717 92.7156 13.4546 93.3185 13.4546ZM92.2413 4.46116C92.2413 4.96927 92.5394 5.60948 93.1356 6.3818L93.9181 5.86353C94.3178 5.60609 94.5922 5.35543 94.7412 5.11154C94.897 4.86764 94.9749 4.57633 94.9749 4.23759C94.9749 3.89886 94.8496 3.60416 94.5989 3.35349C94.3483 3.10283 94.0265 2.97749 93.6336 2.97749C93.2135 2.97749 92.8748 3.11299 92.6173 3.38398C92.3667 3.65497 92.2413 4.01403 92.2413 4.46116Z" fill="#2B2B2B"/>
<path d="M110.828 10.3958V15.609H107.779V0.812968H113.551C114.662 0.812968 115.638 1.01621 116.478 1.42269C117.325 1.82918 117.975 2.40842 118.429 3.16041C118.883 3.90563 119.11 4.75586 119.11 5.7111C119.11 7.16089 118.612 8.30582 117.616 9.14589C116.627 9.97918 115.255 10.3958 113.5 10.3958H110.828ZM110.828 7.92644H113.551C114.357 7.92644 114.971 7.73674 115.391 7.35736C115.817 6.97797 116.031 6.43599 116.031 5.73142C116.031 5.00653 115.817 4.42051 115.391 3.97338C114.964 3.52625 114.374 3.29591 113.622 3.28236H110.828V7.92644Z" fill="#2B2B2B"/>
<path d="M127.27 15.609C127.135 15.3448 127.036 15.0162 126.975 14.6233C126.264 15.4159 125.339 15.8122 124.201 15.8122C123.124 15.8122 122.23 15.5006 121.518 14.8773C120.814 14.254 120.461 13.4682 120.461 12.5197C120.461 11.3544 120.892 10.4602 121.752 9.83691C122.619 9.21363 123.869 8.89861 125.502 8.89184H126.853V8.26178C126.853 7.75368 126.721 7.3472 126.457 7.04233C126.2 6.73747 125.79 6.58504 125.228 6.58504C124.733 6.58504 124.343 6.7036 124.059 6.94071C123.781 7.17783 123.642 7.50301 123.642 7.91627H120.705C120.705 7.27945 120.902 6.69005 121.295 6.14807C121.688 5.60609 122.243 5.18267 122.961 4.87781C123.679 4.56617 124.486 4.41035 125.38 4.41035C126.735 4.41035 127.809 4.75247 128.601 5.43672C129.401 6.11419 129.8 7.06943 129.8 8.30243V13.0685C129.807 14.1118 129.953 14.901 130.237 15.4362V15.609H127.27ZM124.841 13.5664C125.275 13.5664 125.675 13.4716 126.04 13.2819C126.406 13.0854 126.677 12.8246 126.853 12.4994V10.6092H125.756C124.286 10.6092 123.503 11.1173 123.408 12.1335L123.398 12.3063C123.398 12.6721 123.527 12.9736 123.784 13.2107C124.042 13.4478 124.394 13.5664 124.841 13.5664Z" fill="#2B2B2B"/>
<path d="M138.235 7.36752C137.835 7.31332 137.483 7.28622 137.178 7.28622C136.067 7.28622 135.339 7.66222 134.993 8.41422V15.609H132.056V4.61359H134.831L134.912 5.9245C135.501 4.91507 136.318 4.41035 137.361 4.41035C137.686 4.41035 137.991 4.45439 138.276 4.54246L138.235 7.36752Z" fill="#2B2B2B"/>
<path d="M143.682 1.91047V4.61359H145.562V6.76796H143.682V12.2555C143.682 12.662 143.76 12.9533 143.916 13.1294C144.071 13.3056 144.37 13.3936 144.81 13.3936C145.135 13.3936 145.423 13.3699 145.674 13.3225V15.548C145.098 15.7242 144.505 15.8122 143.895 15.8122C141.836 15.8122 140.786 14.7723 140.745 12.6925V6.76796H139.139V4.61359H140.745V1.91047H143.682Z" fill="#2B2B2B"/>
<path d="M149.901 4.61359L149.993 5.88385C150.778 4.90152 151.832 4.41035 153.153 4.41035C154.318 4.41035 155.185 4.75247 155.754 5.43672C156.324 6.12097 156.615 7.14395 156.628 8.50568V15.609H153.692V8.57681C153.692 7.95353 153.556 7.50302 153.285 7.22525C153.014 6.94071 152.564 6.79844 151.933 6.79844C151.107 6.79844 150.487 7.15073 150.074 7.8553V15.609H147.137V4.61359H149.901Z" fill="#2B2B2B"/>
<path d="M163.925 15.8122C162.312 15.8122 160.998 15.3177 159.982 14.3286C158.972 13.3394 158.468 12.0218 158.468 10.3755V10.091C158.468 8.98668 158.681 8.00096 159.108 7.13379C159.535 6.25985 160.138 5.58915 160.917 5.1217C161.703 4.64747 162.597 4.41035 163.6 4.41035C165.104 4.41035 166.286 4.88458 167.146 5.83304C168.013 6.78151 168.447 8.12629 168.447 9.8674V11.0665H161.445C161.54 11.7846 161.825 12.3605 162.299 12.7941C162.78 13.2277 163.386 13.4445 164.118 13.4445C165.249 13.4445 166.133 13.0346 166.77 12.2148L168.213 13.8306C167.773 14.4539 167.177 14.9417 166.425 15.294C165.673 15.6395 164.839 15.8122 163.925 15.8122ZM163.589 6.78828C163.007 6.78828 162.533 6.98475 162.167 7.37768C161.808 7.77062 161.577 8.33292 161.476 9.06459H165.561V8.83086C165.547 8.18049 165.371 7.67916 165.032 7.32687C164.694 6.96781 164.213 6.78828 163.589 6.78828Z" fill="#2B2B2B"/>
<path d="M176.302 7.36752C175.902 7.31332 175.55 7.28622 175.245 7.28622C174.134 7.28622 173.406 7.66222 173.06 8.41422V15.609H170.124V4.61359H172.898L172.979 5.9245C173.569 4.91507 174.385 4.41035 175.428 4.41035C175.753 4.41035 176.058 4.45439 176.343 4.54246L176.302 7.36752Z" fill="#2B2B2B"/>
<path d="M183.68 12.5705C183.68 12.2115 183.5 11.9303 183.141 11.7271C182.789 11.517 182.22 11.3307 181.434 11.1681C178.819 10.6194 177.511 9.50834 177.511 7.83498C177.511 6.85942 177.915 6.04645 178.721 5.39607C179.534 4.73892 180.594 4.41035 181.902 4.41035C183.297 4.41035 184.412 4.73892 185.245 5.39607C186.085 6.05322 186.505 6.90684 186.505 7.95692H183.568C183.568 7.53689 183.433 7.19138 183.162 6.92039C182.891 6.64262 182.467 6.50374 181.891 6.50374C181.397 6.50374 181.014 6.61553 180.743 6.83909C180.472 7.06266 180.337 7.3472 180.337 7.69271C180.337 8.01789 180.489 8.28211 180.794 8.48535C181.105 8.68182 181.627 8.85457 182.359 9.00362C183.09 9.14589 183.707 9.30848 184.208 9.4914C185.76 10.0605 186.535 11.0462 186.535 12.4486C186.535 13.4512 186.105 14.2642 185.245 14.8875C184.384 15.504 183.273 15.8122 181.912 15.8122C180.99 15.8122 180.171 15.6496 179.452 15.3244C178.741 14.9925 178.182 14.542 177.776 13.9729C177.369 13.397 177.166 12.7771 177.166 12.1132H179.95C179.977 12.6349 180.171 13.0346 180.53 13.3123C180.889 13.5901 181.37 13.729 181.973 13.729C182.535 13.729 182.958 13.624 183.243 13.414C183.534 13.1972 183.68 12.916 183.68 12.5705Z" fill="#2B2B2B"/>
</svg>
