<svg width="201" height="78" viewBox="0 0 201 78" fill="none" xmlns="http://www.w3.org/2000/svg">
<g filter="url(#filter0_d)">
<path d="M6.16479 50.5465C5.18009 50.5465 4.36489 50.8532 3.71919 51.4666C3.08963 52.0639 2.60535 52.9759 2.26635 54.2028C2.26635 54.2351 2.21793 54.2512 2.12107 54.2512C2.04036 54.2512 2 54.227 2 54.1786C2.06457 53.549 2.13721 52.7419 2.21793 51.7572C2.29864 50.7563 2.33899 50.0057 2.33899 49.5053C2.33899 49.4246 2.37935 49.3842 2.46006 49.3842C2.55692 49.3842 2.60535 49.4246 2.60535 49.5053C2.60535 49.8604 3.05734 50.038 3.96133 50.038C5.34959 50.0864 6.97192 50.1106 8.82832 50.1106C9.78073 50.1106 10.7896 50.0945 11.8551 50.0622L13.5016 50.038C14.115 50.038 14.5589 49.9976 14.8334 49.9169C15.1239 49.8362 15.3096 49.6748 15.3903 49.4326C15.4064 49.3681 15.4549 49.3358 15.5356 49.3358C15.6163 49.3358 15.6566 49.3681 15.6566 49.4326C15.6082 49.9331 15.5598 50.6918 15.5114 51.7088C15.4629 52.7257 15.4387 53.549 15.4387 54.1786C15.4387 54.227 15.3903 54.2512 15.2934 54.2512C15.2127 54.2512 15.1643 54.227 15.1481 54.1786C14.9867 52.9356 14.6074 52.0235 14.0101 51.4424C13.4128 50.8451 12.6057 50.5465 11.5887 50.5465C11.1367 50.5465 10.7977 50.5868 10.5717 50.6676C10.3619 50.7483 10.2166 50.8936 10.1359 51.1034C10.0713 51.2971 10.039 51.6119 10.039 52.0477V63.2104C10.039 63.7108 10.0874 64.074 10.1843 64.3C10.2812 64.526 10.4749 64.6793 10.7654 64.76C11.056 64.8408 11.5161 64.8811 12.1456 64.8811C12.1941 64.8811 12.2183 64.9295 12.2183 65.0264C12.2183 65.1233 12.1941 65.1717 12.1456 65.1717C11.5806 65.1717 11.1367 65.1636 10.8139 65.1475L8.82832 65.1233L6.93964 65.1475C6.60064 65.1636 6.13251 65.1717 5.53523 65.1717C5.50294 65.1717 5.4868 65.1233 5.4868 65.0264C5.4868 64.9295 5.50294 64.8811 5.53523 64.8811C6.16479 64.8811 6.62486 64.8408 6.91542 64.76C7.22213 64.6793 7.42391 64.526 7.52077 64.3C7.63377 64.0578 7.69027 63.6946 7.69027 63.2104V51.9993C7.69027 51.5796 7.64991 51.2729 7.5692 51.0792C7.48848 50.8855 7.3432 50.7483 7.13335 50.6676C6.92349 50.5868 6.60064 50.5465 6.16479 50.5465Z" fill="#2F2E2E"/>
<path d="M20.248 65.4865C19.2795 65.4865 18.4239 65.2605 17.6813 64.8085C16.9388 64.3403 16.3657 63.7188 15.9622 62.944C15.5586 62.153 15.3568 61.2975 15.3568 60.3773C15.3568 59.3281 15.6151 58.4402 16.1316 57.7138C16.6644 56.9712 17.3343 56.4224 18.1414 56.0673C18.9647 55.696 19.8041 55.5103 20.6596 55.5103C21.6443 55.5103 22.4999 55.7444 23.2263 56.2125C23.9689 56.6807 24.5339 57.3022 24.9213 58.077C25.3087 58.8357 25.5024 59.6509 25.5024 60.5226C25.5024 61.4912 25.2603 62.3548 24.776 63.1135C24.3079 63.8722 23.6702 64.4614 22.8631 64.8811C22.056 65.2847 21.1843 65.4865 20.248 65.4865ZM20.9744 65.0022C21.6847 65.0022 22.2255 64.6874 22.5968 64.0578C22.9842 63.4283 23.1779 62.5082 23.1779 61.2975C23.1779 60.2159 23.0245 59.2716 22.7178 58.4644C22.4273 57.6573 22.0237 57.0439 21.5071 56.6242C21.0067 56.2045 20.4579 55.9946 19.8606 55.9946C19.1342 55.9946 18.5853 56.2933 18.214 56.8905C17.8428 57.4878 17.6571 58.3676 17.6571 59.5298C17.6571 60.5791 17.7943 61.5235 18.0688 62.3629C18.3593 63.1861 18.7548 63.8318 19.2552 64.3C19.7718 64.7681 20.3449 65.0022 20.9744 65.0022Z" fill="#2F2E2E"/>
<path d="M44.5667 64.8811C44.6313 64.8811 44.6636 64.9295 44.6636 65.0264C44.6636 65.1233 44.6313 65.1717 44.5667 65.1717C44.1631 65.1717 43.8403 65.1636 43.5982 65.1475L42.218 65.1233L40.8378 65.1475C40.5956 65.1636 40.2728 65.1717 39.8692 65.1717C39.8208 65.1717 39.7966 65.1233 39.7966 65.0264C39.7966 64.9295 39.8208 64.8811 39.8692 64.8811C40.4019 64.8811 40.7651 64.7681 40.9588 64.5421C41.1525 64.3 41.2494 63.8561 41.2494 63.2104V59.6025C41.2494 58.6985 41.088 58.0286 40.7651 57.5927C40.4584 57.1569 39.9822 56.939 39.3365 56.939C38.9007 56.939 38.4648 57.0439 38.029 57.2537C37.5931 57.4636 37.2138 57.7461 36.8909 58.1012V63.2104C36.8909 63.8722 36.9797 64.3161 37.1573 64.5421C37.351 64.7681 37.7223 64.8811 38.2711 64.8811C38.3195 64.8811 38.3437 64.9295 38.3437 65.0264C38.3437 65.1233 38.3195 65.1717 38.2711 65.1717C37.8675 65.1717 37.5447 65.1636 37.3025 65.1475L35.8981 65.1233L34.5179 65.1475C34.2758 65.1636 33.953 65.1717 33.5494 65.1717C33.501 65.1717 33.4767 65.1233 33.4767 65.0264C33.4767 64.9295 33.501 64.8811 33.5494 64.8811C34.0982 64.8811 34.4614 64.7681 34.639 64.5421C34.8327 64.3161 34.9296 63.8722 34.9296 63.2104V59.6025C34.9296 58.6985 34.7682 58.0286 34.4453 57.5927C34.1386 57.1569 33.6624 56.939 33.0167 56.939C32.6131 56.939 32.2015 57.0358 31.7818 57.2295C31.3621 57.4232 30.9908 57.6815 30.6679 58.0044V63.2104C30.6679 63.8722 30.7567 64.3161 30.9343 64.5421C31.1119 64.7681 31.4751 64.8811 32.0239 64.8811C32.0723 64.8811 32.0966 64.9295 32.0966 65.0264C32.0966 65.1233 32.0723 65.1717 32.0239 65.1717C31.6203 65.1717 31.3056 65.1636 31.0796 65.1475L29.6752 65.1233L28.2708 65.1475C28.0448 65.1636 27.73 65.1717 27.3264 65.1717C27.278 65.1717 27.2538 65.1233 27.2538 65.0264C27.2538 64.9295 27.278 64.8811 27.3264 64.8811C27.8753 64.8811 28.2385 64.7681 28.416 64.5421C28.5936 64.3161 28.6824 63.8722 28.6824 63.2104V58.5855C28.6824 58.0689 28.6178 57.6896 28.4887 57.4475C28.3757 57.2053 28.182 57.0842 27.9075 57.0842C27.6654 57.0842 27.2618 57.2053 26.6969 57.4475H26.6726C26.6081 57.4475 26.5596 57.4071 26.5274 57.3264C26.4951 57.2457 26.5031 57.1972 26.5516 57.1811L29.7236 55.6314C29.8204 55.5991 29.8769 55.583 29.8931 55.583C30.0545 55.583 30.2159 55.7686 30.3774 56.1399C30.5549 56.495 30.6518 56.9632 30.6679 57.5443C31.7495 56.2206 32.9279 55.5588 34.2032 55.5588C34.9457 55.5588 35.543 55.7444 35.995 56.1157C36.447 56.4708 36.7295 56.9955 36.8425 57.6896C37.9886 56.269 39.2154 55.5588 40.523 55.5588C41.3786 55.5588 42.0323 55.809 42.4843 56.3094C42.9525 56.7937 43.1865 57.5362 43.1865 58.5371V63.2104C43.1865 63.8722 43.2753 64.3161 43.4529 64.5421C43.6466 64.7681 44.0179 64.8811 44.5667 64.8811Z" fill="#2F2E2E"/>
<path d="M52.6895 55.5103C53.3998 55.5103 54.0536 55.6798 54.6509 56.0188C55.2643 56.3578 55.7486 56.8663 56.1037 57.5443C56.475 58.2223 56.6606 59.0456 56.6606 60.0141C56.6606 61.1764 56.4104 62.1692 55.91 62.9924C55.4257 63.8157 54.78 64.4372 53.9729 64.8569C53.1657 65.2766 52.3102 65.4865 51.4062 65.4865C50.1471 65.4865 49.0171 65.1152 48.0162 64.3726L45.9581 65.317H45.9096C45.8451 65.317 45.8047 65.2847 45.7886 65.2201C45.7724 65.1717 45.7886 65.1313 45.837 65.099C46.2728 64.8246 46.5876 64.5098 46.7813 64.1547C46.9912 63.7834 47.0961 63.2911 47.0961 62.6777V50.8371C47.0961 50.2721 47.0396 49.8685 46.9266 49.6264C46.8136 49.3681 46.6199 49.2389 46.3455 49.2389C46.1518 49.2389 45.837 49.3358 45.4011 49.5295H45.3769C45.3124 49.5295 45.2639 49.4891 45.2316 49.4084C45.1994 49.3277 45.1994 49.2712 45.2316 49.2389L48.5974 47.6408L48.7185 47.6166C48.783 47.6166 48.8557 47.6489 48.9364 47.7135C49.0171 47.778 49.0574 47.8345 49.0574 47.883V57.3022C49.5902 56.7533 50.1471 56.3175 50.7282 55.9946C51.3093 55.6718 51.9631 55.5103 52.6895 55.5103ZM52.0358 65.0022C52.8267 65.0022 53.4321 64.6471 53.8518 63.9368C54.2715 63.2265 54.4814 62.2176 54.4814 60.91C54.4814 59.4895 54.2231 58.4241 53.7065 57.7138C53.2061 56.9874 52.5281 56.6242 51.6726 56.6242C50.8493 56.6242 49.9776 56.9955 49.0574 57.738V61.4427C49.0574 62.2822 49.2108 62.9682 49.5175 63.5009C49.8404 64.0336 50.2278 64.4211 50.6798 64.6632C51.1479 64.8892 51.5999 65.0022 52.0358 65.0022Z" fill="#2F2E2E"/>
<path d="M66.6772 63.6462C66.7095 63.6462 66.7418 63.6785 66.7741 63.7431C66.8225 63.8076 66.8306 63.8561 66.7983 63.8883C66.2172 64.4372 65.6279 64.8408 65.0307 65.099C64.4334 65.3412 63.7796 65.4623 63.0693 65.4623C62.0685 65.4623 61.2049 65.2524 60.4785 64.8327C59.7682 64.3968 59.2193 63.8238 58.8319 63.1135C58.4606 62.3871 58.275 61.6122 58.275 60.789C58.275 59.8366 58.5091 58.9649 58.9772 58.1739C59.4615 57.3829 60.1152 56.7614 60.9385 56.3094C61.7779 55.8413 62.6981 55.6072 63.6989 55.6072C64.6513 55.6072 65.3858 55.8251 65.9024 56.261C66.4189 56.6807 66.6772 57.2618 66.6772 58.0044C66.6772 58.4402 66.5884 58.6581 66.4109 58.6581H65.0791L60.5269 58.7066C60.4785 59.0456 60.4542 59.4088 60.4542 59.7962C60.4542 61.2006 60.7771 62.3225 61.4228 63.1619C62.0846 63.9852 62.9967 64.3968 64.159 64.3968C64.5787 64.3968 65.0065 64.3403 65.4423 64.2273C65.8782 64.0982 66.2737 63.9126 66.6288 63.6704L66.6772 63.6462ZM62.8272 56.0915C62.2945 56.0915 61.8344 56.2852 61.447 56.6726C61.0596 57.06 60.7852 57.5927 60.6237 58.2707L64.4011 58.1981C64.3688 57.5362 64.2235 57.0197 63.9653 56.6484C63.707 56.2771 63.3276 56.0915 62.8272 56.0915Z" fill="#2F2E2E"/>
<path d="M74.5719 55.583C74.9432 55.583 75.2983 55.704 75.6373 55.9462C75.9763 56.1883 76.1458 56.4789 76.1458 56.8179C76.1458 57.1246 76.0489 57.3748 75.8552 57.5685C75.6777 57.7622 75.4275 57.8591 75.1046 57.8591C74.8948 57.8591 74.7172 57.8187 74.5719 57.738C74.4428 57.6412 74.3055 57.512 74.1603 57.3506C74.015 57.2053 73.8858 57.1004 73.7728 57.0358C73.6598 56.9551 73.5226 56.9147 73.3612 56.9147C73.1836 56.9147 72.9899 56.9874 72.7801 57.1327C72.5864 57.2618 72.2796 57.5443 71.8599 57.9802V63.2104C71.8599 63.6624 71.9245 64.0094 72.0536 64.2516C72.1828 64.4776 72.4007 64.639 72.7074 64.7358C73.0141 64.8327 73.4661 64.8811 74.0634 64.8811C74.128 64.8811 74.1603 64.9295 74.1603 65.0264C74.1603 65.1233 74.128 65.1717 74.0634 65.1717C73.5307 65.1717 73.1029 65.1636 72.7801 65.1475L70.8672 65.1233L69.4628 65.1475C69.2368 65.1636 68.922 65.1717 68.5184 65.1717C68.47 65.1717 68.4458 65.1233 68.4458 65.0264C68.4458 64.9295 68.47 64.8811 68.5184 64.8811C69.0673 64.8811 69.4305 64.7681 69.608 64.5421C69.7856 64.3161 69.8744 63.8722 69.8744 63.2104V58.5855C69.8744 58.0689 69.8098 57.6896 69.6807 57.4475C69.5677 57.2053 69.374 57.0842 69.0996 57.0842C68.8574 57.0842 68.4538 57.2053 67.8889 57.4475H67.8646C67.8001 57.4475 67.7516 57.4071 67.7194 57.3264C67.6871 57.2457 67.6952 57.1972 67.7436 57.1811L70.9156 55.6314C71.0125 55.5991 71.069 55.583 71.0851 55.583C71.2465 55.583 71.408 55.7605 71.5694 56.1157C71.7308 56.4547 71.8277 56.9067 71.8599 57.4717C72.4895 56.7614 73.0141 56.269 73.4338 55.9946C73.8536 55.7202 74.2329 55.583 74.5719 55.583Z" fill="#2F2E2E"/>
<path d="M82.2309 64.2031C83.2478 64.3646 84.0388 64.526 84.6038 64.6874C85.1688 64.8327 85.6612 65.099 86.0809 65.4865C86.5167 65.8739 86.7346 66.4227 86.7346 67.133C86.7346 67.9563 86.4522 68.7392 85.8872 69.4818C85.3383 70.2405 84.5958 70.8458 83.6595 71.2978C82.7232 71.7659 81.7143 72 80.6327 72C79.4543 72 78.4939 71.7337 77.7513 71.2009C77.0087 70.6844 76.6375 70.0064 76.6375 69.167C76.6375 68.5858 76.8312 67.9966 77.2186 67.3994C77.6221 66.8021 78.3001 66.1725 79.2526 65.5107C78.2033 65.204 77.6786 64.6309 77.6786 63.7915C77.6786 63.3718 77.832 62.9521 78.1387 62.5324C78.4616 62.0965 78.9216 61.701 79.5189 61.3459C78.8571 61.1037 78.3405 60.7405 77.9692 60.2563C77.5979 59.7558 77.4123 59.2151 77.4123 58.6339C77.4123 58.0205 77.606 57.4878 77.9934 57.0358C78.397 56.5838 78.9055 56.2448 79.5189 56.0188C80.1323 55.7767 80.77 55.6556 81.4318 55.6556C82.4972 55.6556 83.3689 55.9139 84.0469 56.4305C84.4827 56.156 84.9105 55.9543 85.3302 55.8251C85.75 55.6798 86.2019 55.6072 86.6862 55.6072C86.7992 55.6072 86.8557 55.817 86.8557 56.2368C86.8557 56.4628 86.8234 56.6968 86.7589 56.939C86.7104 57.1811 86.6539 57.278 86.5894 57.2295C85.9114 56.9712 85.3302 56.8421 84.846 56.8421C84.7007 56.8421 84.5877 56.8502 84.507 56.8663C84.9428 57.3506 85.1607 57.9156 85.1607 58.5613C85.1607 59.1424 84.967 59.6671 84.5796 60.1352C84.2083 60.5872 83.716 60.9423 83.1026 61.2006C82.4891 61.4589 81.8354 61.588 81.1412 61.588C80.6892 61.588 80.2776 61.5396 79.9063 61.4427C79.4866 61.7656 79.2768 62.153 79.2768 62.605C79.2768 63.1054 79.5189 63.4606 80.0032 63.6704C80.4875 63.8641 81.23 64.0417 82.2309 64.2031ZM80.7054 56.0915C80.318 56.0915 80.0113 56.261 79.7853 56.6C79.5754 56.9228 79.4705 57.399 79.4705 58.0286C79.4705 58.9003 79.6884 59.6428 80.1243 60.2563C80.5601 60.8697 81.1009 61.1764 81.7466 61.1764C82.1179 61.1764 82.4326 61.0069 82.6909 60.6679C82.9492 60.3289 83.0783 59.8043 83.0783 59.094C83.0783 58.2384 82.8443 57.5282 82.3761 56.9632C81.908 56.382 81.3511 56.0915 80.7054 56.0915ZM81.8192 71.2494C82.7716 71.2494 83.5303 70.983 84.0953 70.4503C84.6765 69.9176 84.967 69.2315 84.967 68.3921C84.967 67.7787 84.7814 67.3025 84.4101 66.9635C84.055 66.6245 83.6111 66.3824 83.0783 66.2371C82.5618 66.108 81.8677 65.9869 80.996 65.8739C80.8668 65.8577 80.6731 65.8255 80.4148 65.777C80.1727 65.7447 79.9628 65.7044 79.7853 65.656C79.4463 65.9627 79.1799 66.3017 78.9862 66.6729C78.8086 67.0604 78.7198 67.5446 78.7198 68.1258C78.7198 69.1105 79.0023 69.8773 79.5673 70.4261C80.1323 70.9749 80.8829 71.2494 81.8192 71.2494Z" fill="#2F2E2E"/>
<path d="M110.093 64.8811C110.158 64.8973 110.182 64.9538 110.166 65.0506C110.166 65.1313 110.142 65.1717 110.093 65.1717H106.558C106.058 65.1717 105.178 64.7197 103.919 63.8157C102.692 64.9134 101.118 65.4623 99.1972 65.4623C98.1157 65.4623 97.2117 65.3008 96.4853 64.978C95.7589 64.639 95.2181 64.2031 94.863 63.6704C94.5078 63.1377 94.3302 62.5647 94.3302 61.9512C94.3302 61.1118 94.6047 60.3773 95.1535 59.7478C95.7024 59.1182 96.5095 58.4079 97.5749 57.6169C97.3489 57.2618 97.1068 56.8582 96.8485 56.4063C96.6225 55.9381 96.4449 55.5023 96.3158 55.0987C96.2028 54.679 96.1463 54.2431 96.1463 53.7912C96.1463 52.984 96.3239 52.2576 96.679 51.6119C97.0503 50.9662 97.5668 50.4577 98.2287 50.0864C98.9067 49.7151 99.6896 49.5295 100.577 49.5295C101.514 49.5295 102.264 49.7394 102.829 50.1591C103.41 50.5626 103.701 51.1599 103.701 51.9509C103.701 52.5966 103.515 53.1858 103.144 53.7185C102.789 54.2351 102.369 54.679 101.885 55.0503C101.401 55.4054 100.674 55.9058 99.7057 56.5515C100.9 58.3595 102.571 60.0948 104.718 61.7575C104.976 61.0957 105.105 60.3047 105.105 59.3846C105.105 58.5613 104.96 57.964 104.67 57.5927C104.395 57.2053 103.911 57.0116 103.217 57.0116C103.184 57.0116 103.16 56.9632 103.144 56.8663C103.144 56.7695 103.168 56.721 103.217 56.721L108.762 56.6968C108.81 56.6968 108.834 56.7452 108.834 56.8421C108.834 56.939 108.81 56.9874 108.762 56.9874C108.261 56.9874 107.882 57.0439 107.624 57.1569C107.365 57.2537 107.18 57.4152 107.067 57.6412C106.954 57.851 106.833 58.1981 106.704 58.6824C106.284 60.1352 105.8 61.2975 105.251 62.1692C106.268 62.9279 107.196 63.5413 108.035 64.0094C108.891 64.4776 109.577 64.7681 110.093 64.8811ZM98.1318 52.072C98.1318 53.3149 98.5757 54.6709 99.4636 56.1399C100.109 55.5749 100.61 54.9938 100.965 54.3965C101.32 53.7992 101.498 53.1374 101.498 52.411C101.498 51.7007 101.32 51.1438 100.965 50.7402C100.626 50.3366 100.174 50.1349 99.6089 50.1349C98.6242 50.1349 98.1318 50.7806 98.1318 52.072ZM100.795 64.4211C101.877 64.4211 102.789 64.1143 103.532 63.5009C103.209 63.2588 102.926 63.0409 102.684 62.8471C101.796 62.1369 100.924 61.362 100.069 60.5226C99.2134 59.6671 98.4708 58.8196 97.8413 57.9802C96.9211 58.8196 96.4611 59.7397 96.4611 60.7405C96.4611 61.3862 96.6386 61.9916 96.9938 62.5566C97.3489 63.1216 97.8574 63.5736 98.5192 63.9126C99.1811 64.2516 99.9398 64.4211 100.795 64.4211Z" fill="#2F2E2E"/>
<path d="M120.659 63.1135C120.659 63.6301 120.715 64.0094 120.828 64.2516C120.958 64.4776 121.192 64.639 121.531 64.7358C121.886 64.8327 122.435 64.8811 123.177 64.8811C123.226 64.8811 123.25 64.9295 123.25 65.0264C123.25 65.1233 123.226 65.1717 123.177 65.1717C122.515 65.1717 121.999 65.1636 121.627 65.1475L119.521 65.1233L117.777 65.1475C117.471 65.1636 117.051 65.1717 116.518 65.1717C116.47 65.1717 116.446 65.1233 116.446 65.0264C116.446 64.9295 116.47 64.8811 116.518 64.8811C117.067 64.8811 117.463 64.8408 117.705 64.76C117.947 64.6793 118.108 64.526 118.189 64.3C118.286 64.074 118.334 63.7108 118.334 63.2104V51.9993C118.334 51.515 118.286 51.1599 118.189 50.9339C118.108 50.7079 117.939 50.5546 117.681 50.4738C117.438 50.377 117.051 50.3286 116.518 50.3286C116.47 50.3286 116.446 50.2801 116.446 50.1833C116.446 50.0864 116.47 50.038 116.518 50.038L117.777 50.0622C118.488 50.0945 119.061 50.1106 119.497 50.1106C119.868 50.1106 120.32 50.0864 120.853 50.038C121.046 50.0219 121.305 50.0057 121.627 49.9896C121.966 49.9734 122.362 49.9654 122.814 49.9654C124.412 49.9654 125.671 50.3044 126.591 50.9823C127.528 51.6603 127.996 52.7015 127.996 54.1059C127.996 55.1229 127.729 55.9865 127.197 56.6968C126.68 57.4071 126.01 57.9398 125.187 58.2949C124.38 58.6501 123.548 58.8276 122.693 58.8276C122.241 58.8276 121.862 58.7873 121.555 58.7066C121.506 58.7066 121.482 58.6662 121.482 58.5855C121.482 58.5371 121.49 58.4886 121.506 58.4402C121.539 58.3918 121.571 58.3756 121.603 58.3918C121.862 58.4564 122.144 58.4886 122.451 58.4886C123.29 58.4886 124 58.1416 124.582 57.4475C125.163 56.7533 125.453 55.7605 125.453 54.4691C125.453 53.1939 125.155 52.2092 124.557 51.515C123.96 50.8048 123.137 50.4496 122.088 50.4496C121.7 50.4496 121.401 50.49 121.192 50.5707C120.998 50.6514 120.861 50.8048 120.78 51.0308C120.699 51.2406 120.659 51.5796 120.659 52.0477V63.1135Z" fill="#2F2E2E"/>
<path d="M138.347 63.8641C138.412 63.8641 138.452 63.9045 138.468 63.9852C138.485 64.0498 138.46 64.0982 138.396 64.1305L135.902 65.317C135.837 65.3493 135.765 65.3654 135.684 65.3654C135.458 65.3654 135.24 65.2363 135.03 64.978C134.82 64.7197 134.675 64.3726 134.594 63.9368L133.335 64.6148C132.399 65.099 131.6 65.3412 130.938 65.3412C130.421 65.3412 130.018 65.212 129.727 64.9538C129.453 64.6793 129.316 64.3081 129.316 63.8399C129.316 63.3395 129.493 62.9682 129.848 62.7261C130.203 62.4678 130.881 62.1692 131.882 61.8302L134.522 60.9343V58.9971C134.522 58.0124 134.409 57.2941 134.183 56.8421C133.957 56.374 133.618 56.1399 133.166 56.1399C132.294 56.1399 131.793 56.7775 131.664 58.0528C131.584 58.8599 131.172 59.2635 130.429 59.2635C129.735 59.2635 129.388 58.9649 129.388 58.3676C129.388 57.9479 129.646 57.5282 130.163 57.1085C130.696 56.6726 131.333 56.3175 132.076 56.043C132.818 55.7525 133.48 55.6072 134.061 55.6072C134.788 55.6072 135.369 55.8332 135.805 56.2852C136.257 56.721 136.483 57.3829 136.483 58.2707V62.5566C136.483 63.057 136.564 63.4364 136.725 63.6946C136.886 63.9529 137.12 64.0821 137.427 64.0821C137.669 64.0821 137.96 64.0094 138.299 63.8641H138.347ZM134.546 63.5494C134.53 63.4848 134.522 63.3637 134.522 63.1861V61.3217L132.802 61.9512C132.383 62.1127 132.084 62.2902 131.906 62.4839C131.729 62.6615 131.64 62.8875 131.64 63.1619C131.64 63.5009 131.737 63.7673 131.931 63.961C132.124 64.1547 132.375 64.2516 132.681 64.2516C133.02 64.2516 133.4 64.1466 133.819 63.9368L134.546 63.5494Z" fill="#2F2E2E"/>
<path d="M145.44 55.583C145.811 55.583 146.167 55.704 146.506 55.9462C146.845 56.1883 147.014 56.4789 147.014 56.8179C147.014 57.1246 146.917 57.3748 146.723 57.5685C146.546 57.7622 146.296 57.8591 145.973 57.8591C145.763 57.8591 145.585 57.8187 145.44 57.738C145.311 57.6412 145.174 57.512 145.028 57.3506C144.883 57.2053 144.754 57.1004 144.641 57.0358C144.528 56.9551 144.391 56.9147 144.229 56.9147C144.052 56.9147 143.858 56.9874 143.648 57.1327C143.455 57.2618 143.148 57.5443 142.728 57.9802V63.2104C142.728 63.6624 142.793 64.0094 142.922 64.2516C143.051 64.4776 143.269 64.639 143.576 64.7358C143.882 64.8327 144.334 64.8811 144.932 64.8811C144.996 64.8811 145.028 64.9295 145.028 65.0264C145.028 65.1233 144.996 65.1717 144.932 65.1717C144.399 65.1717 143.971 65.1636 143.648 65.1475L141.735 65.1233L140.331 65.1475C140.105 65.1636 139.79 65.1717 139.387 65.1717C139.338 65.1717 139.314 65.1233 139.314 65.0264C139.314 64.9295 139.338 64.8811 139.387 64.8811C139.935 64.8811 140.299 64.7681 140.476 64.5421C140.654 64.3161 140.743 63.8722 140.743 63.2104V58.5855C140.743 58.0689 140.678 57.6896 140.549 57.4475C140.436 57.2053 140.242 57.0842 139.968 57.0842C139.726 57.0842 139.322 57.2053 138.757 57.4475H138.733C138.668 57.4475 138.62 57.4071 138.588 57.3264C138.555 57.2457 138.563 57.1972 138.612 57.1811L141.784 55.6314C141.881 55.5991 141.937 55.583 141.953 55.583C142.115 55.583 142.276 55.7605 142.438 56.1157C142.599 56.4547 142.696 56.9067 142.728 57.4717C143.358 56.7614 143.882 56.269 144.302 55.9946C144.722 55.7202 145.101 55.583 145.44 55.583Z" fill="#2F2E2E"/>
<path d="M155.199 63.622C155.247 63.622 155.288 63.6543 155.32 63.7188C155.368 63.7834 155.368 63.8318 155.32 63.8641C154.723 64.4291 154.158 64.8408 153.625 65.099C153.092 65.3412 152.527 65.4623 151.93 65.4623C151.236 65.4623 150.647 65.3008 150.162 64.978C149.694 64.639 149.46 64.0821 149.46 63.3072V57.8349C149.46 57.3022 149.371 56.947 149.194 56.7695C149.032 56.5919 148.71 56.5031 148.225 56.5031C148.209 56.5031 148.185 56.487 148.153 56.4547C148.136 56.4063 148.128 56.3578 148.128 56.3094C148.128 56.261 148.136 56.2206 148.153 56.1883C148.185 56.1399 148.209 56.1157 148.225 56.1157C149.743 56.0511 150.695 55.3973 151.083 54.1544C151.115 54.0898 151.179 54.0575 151.276 54.0575C151.389 54.0575 151.446 54.0898 151.446 54.1544V56.0673C152.204 56.0511 153.278 55.9704 154.666 55.8251C154.698 55.8251 154.731 55.8897 154.763 56.0188C154.811 56.1318 154.836 56.261 154.836 56.4063C154.836 56.5515 154.803 56.6968 154.739 56.8421C154.69 56.9874 154.634 57.052 154.569 57.0358C153.665 56.826 152.624 56.6968 151.446 56.6484V62.5082C151.446 63.1377 151.599 63.6059 151.906 63.9126C152.229 64.2031 152.673 64.3484 153.238 64.3484C153.916 64.3484 154.553 64.1143 155.15 63.6462L155.199 63.622Z" fill="#2F2E2E"/>
<path d="M167.812 64.8811C167.861 64.8811 167.885 64.9295 167.885 65.0264C167.885 65.1233 167.861 65.1717 167.812 65.1717C167.409 65.1717 167.094 65.1636 166.868 65.1475L165.464 65.1233L164.083 65.1475C163.841 65.1636 163.518 65.1717 163.115 65.1717C163.066 65.1717 163.042 65.1233 163.042 65.0264C163.042 64.9295 163.066 64.8811 163.115 64.8811C163.664 64.8811 164.027 64.7681 164.204 64.5421C164.382 64.3161 164.471 63.8722 164.471 63.2104V59.5783C164.471 58.6743 164.301 58.0124 163.962 57.5927C163.639 57.1569 163.123 56.939 162.413 56.939C161.993 56.939 161.565 57.0358 161.129 57.2295C160.693 57.4232 160.298 57.6815 159.943 58.0044V63.2104C159.943 63.8722 160.032 64.3161 160.209 64.5421C160.387 64.7681 160.75 64.8811 161.299 64.8811C161.347 64.8811 161.371 64.9295 161.371 65.0264C161.371 65.1233 161.347 65.1717 161.299 65.1717C160.895 65.1717 160.58 65.1636 160.354 65.1475L158.95 65.1233L157.546 65.1475C157.32 65.1636 157.005 65.1717 156.601 65.1717C156.553 65.1717 156.529 65.1233 156.529 65.0264C156.529 64.9295 156.553 64.8811 156.601 64.8811C157.15 64.8811 157.513 64.7681 157.691 64.5421C157.868 64.3161 157.957 63.8722 157.957 63.2104V58.5855C157.957 58.0689 157.893 57.6896 157.763 57.4475C157.65 57.2053 157.457 57.0842 157.182 57.0842C156.94 57.0842 156.537 57.2053 155.972 57.4475H155.947C155.883 57.4475 155.834 57.4071 155.802 57.3264C155.77 57.2457 155.778 57.1972 155.826 57.1811L158.998 55.6314C159.095 55.5991 159.152 55.583 159.168 55.583C159.329 55.583 159.491 55.7686 159.652 56.1399C159.83 56.495 159.927 56.9632 159.943 57.5443C161.073 56.2045 162.3 55.5346 163.623 55.5346C164.511 55.5346 165.205 55.809 165.706 56.3578C166.206 56.8905 166.456 57.6169 166.456 58.5371V63.2104C166.456 63.8722 166.545 64.3161 166.723 64.5421C166.9 64.7681 167.263 64.8811 167.812 64.8811Z" fill="#2F2E2E"/>
<path d="M177.484 63.6462C177.516 63.6462 177.549 63.6785 177.581 63.7431C177.629 63.8076 177.638 63.8561 177.605 63.8883C177.024 64.4372 176.435 64.8408 175.838 65.099C175.24 65.3412 174.587 65.4623 173.876 65.4623C172.875 65.4623 172.012 65.2524 171.285 64.8327C170.575 64.3968 170.026 63.8238 169.639 63.1135C169.268 62.3871 169.082 61.6122 169.082 60.789C169.082 59.8366 169.316 58.9649 169.784 58.1739C170.268 57.3829 170.922 56.7614 171.745 56.3094C172.585 55.8413 173.505 55.6072 174.506 55.6072C175.458 55.6072 176.193 55.8251 176.709 56.261C177.226 56.6807 177.484 57.2618 177.484 58.0044C177.484 58.4402 177.395 58.6581 177.218 58.6581H175.886L171.334 58.7066C171.285 59.0456 171.261 59.4088 171.261 59.7962C171.261 61.2006 171.584 62.3225 172.23 63.1619C172.892 63.9852 173.804 64.3968 174.966 64.3968C175.386 64.3968 175.813 64.3403 176.249 64.2273C176.685 64.0982 177.081 63.9126 177.436 63.6704L177.484 63.6462ZM173.634 56.0915C173.101 56.0915 172.641 56.2852 172.254 56.6726C171.867 57.06 171.592 57.5927 171.431 58.2707L175.208 58.1981C175.176 57.5362 175.031 57.0197 174.772 56.6484C174.514 56.2771 174.135 56.0915 173.634 56.0915Z" fill="#2F2E2E"/>
<path d="M185.379 55.583C185.75 55.583 186.105 55.704 186.444 55.9462C186.783 56.1883 186.953 56.4789 186.953 56.8179C186.953 57.1246 186.856 57.3748 186.662 57.5685C186.485 57.7622 186.234 57.8591 185.912 57.8591C185.702 57.8591 185.524 57.8187 185.379 57.738C185.25 57.6412 185.113 57.512 184.967 57.3506C184.822 57.2053 184.693 57.1004 184.58 57.0358C184.467 56.9551 184.33 56.9147 184.168 56.9147C183.991 56.9147 183.797 56.9874 183.587 57.1327C183.393 57.2618 183.087 57.5443 182.667 57.9802V63.2104C182.667 63.6624 182.731 64.0094 182.861 64.2516C182.99 64.4776 183.208 64.639 183.514 64.7358C183.821 64.8327 184.273 64.8811 184.87 64.8811C184.935 64.8811 184.967 64.9295 184.967 65.0264C184.967 65.1233 184.935 65.1717 184.87 65.1717C184.338 65.1717 183.91 65.1636 183.587 65.1475L181.674 65.1233L180.27 65.1475C180.044 65.1636 179.729 65.1717 179.325 65.1717C179.277 65.1717 179.253 65.1233 179.253 65.0264C179.253 64.9295 179.277 64.8811 179.325 64.8811C179.874 64.8811 180.237 64.7681 180.415 64.5421C180.593 64.3161 180.681 63.8722 180.681 63.2104V58.5855C180.681 58.0689 180.617 57.6896 180.488 57.4475C180.375 57.2053 180.181 57.0842 179.907 57.0842C179.664 57.0842 179.261 57.2053 178.696 57.4475H178.672C178.607 57.4475 178.559 57.4071 178.526 57.3264C178.494 57.2457 178.502 57.1972 178.551 57.1811L181.723 55.6314C181.819 55.5991 181.876 55.583 181.892 55.583C182.053 55.583 182.215 55.7605 182.376 56.1157C182.538 56.4547 182.635 56.9067 182.667 57.4717C183.296 56.7614 183.821 56.269 184.241 55.9946C184.661 55.7202 185.04 55.583 185.379 55.583Z" fill="#2F2E2E"/>
<path d="M190.101 57.0842C190.101 57.5847 190.271 58.0044 190.61 58.3434C190.965 58.6824 191.473 59.0375 192.135 59.4088C192.716 59.7316 193.16 59.998 193.467 60.2078C193.79 60.4177 194.064 60.7002 194.29 61.0553C194.532 61.4105 194.653 61.8382 194.653 62.3387C194.653 62.8875 194.516 63.396 194.242 63.8641C193.967 64.3323 193.556 64.7116 193.007 65.0022C192.474 65.2928 191.836 65.438 191.094 65.438C190.206 65.438 189.391 65.212 188.648 64.76C188.551 64.6632 188.503 64.5663 188.503 64.4695L188.455 62.2418C188.455 62.1934 188.495 62.1692 188.576 62.1692C188.673 62.153 188.729 62.1611 188.745 62.1934C189.02 63.0005 189.431 63.6623 189.98 64.1789C190.545 64.6955 191.142 64.9538 191.772 64.9538C192.175 64.9538 192.49 64.8488 192.716 64.639C192.942 64.4291 193.055 64.1143 193.055 63.6946C193.055 63.0812 192.878 62.5969 192.523 62.2418C192.167 61.8705 191.651 61.5073 190.973 61.1522C190.424 60.8616 189.996 60.6195 189.69 60.4258C189.383 60.2159 189.116 59.9415 188.89 59.6025C188.681 59.2474 188.576 58.8115 188.576 58.2949C188.576 57.3748 188.907 56.6887 189.568 56.2368C190.246 55.7848 191.062 55.5588 192.014 55.5588C192.644 55.5588 193.289 55.6798 193.951 55.922C194.096 55.9865 194.169 56.0753 194.169 56.1883C194.169 56.5596 194.161 56.8502 194.145 57.06L194.121 58.2223C194.121 58.2707 194.072 58.2949 193.975 58.2949C193.879 58.2949 193.83 58.2707 193.83 58.2223C193.83 57.8994 193.701 57.5685 193.443 57.2295C193.184 56.8744 192.853 56.5838 192.45 56.3578C192.046 56.1318 191.635 56.0188 191.215 56.0188C190.472 56.0188 190.101 56.374 190.101 57.0842Z" fill="#2F2E2E"/>
</g>
<g filter="url(#filter1_d)">
<path fill-rule="evenodd" clip-rule="evenodd" d="M91.154 34.6308V35.7271H80.0712V34.629H80.0712C80.0713 34.0598 82.5522 33.5984 85.6126 33.5984C88.673 33.5984 91.154 34.0598 91.154 34.629C91.154 34.6296 91.154 34.6302 91.154 34.6308Z" fill="url(#paint0_linear)"/>
<path fill-rule="evenodd" clip-rule="evenodd" d="M99.3725 2.71766C99.9359 2.06111 100.925 1.98559 101.581 2.54896L107.519 7.64419C108.176 8.20757 108.251 9.19652 107.688 9.85307C107.226 10.3911 106.479 10.539 105.863 10.2647L100.589 16.4115L116.724 30.2553L114.815 32.4801L92.1077 12.7803L99.2001 4.51383C98.8816 3.95513 98.9297 3.23372 99.3725 2.71766ZM91.0036 14.0672L83.7261 22.5494L83.9002 22.6987C83.2532 22.2753 82.377 22.3887 81.8618 22.9922C81.3026 23.6472 81.3803 24.6315 82.0353 25.1907L87.9968 30.2801C88.6518 30.8393 89.6361 30.7616 90.1952 30.1066C90.6828 29.5355 90.6862 28.714 90.2449 28.1423L90.4057 28.2803L95.7112 22.0965L111.847 35.9403L113.711 33.767L91.0036 14.0672Z" fill="#2F2E2E"/>
</g>
<defs>
<filter id="filter0_d" x="0" y="45.6166" width="200.653" height="32.3834" filterUnits="userSpaceOnUse" color-interpolation-filters="sRGB">
<feFlood flood-opacity="0" result="BackgroundImageFix"/>
<feColorMatrix in="SourceAlpha" type="matrix" values="0 0 0 0 0 0 0 0 0 0 0 0 0 0 0 0 0 0 127 0"/>
<feOffset dx="2" dy="2"/>
<feGaussianBlur stdDeviation="2"/>
<feColorMatrix type="matrix" values="0 0 0 0 0 0 0 0 0 0 0 0 0 0 0 0 0 0 0.15 0"/>
<feBlend mode="normal" in2="BackgroundImageFix" result="effect1_dropShadow"/>
<feBlend mode="normal" in="SourceGraphic" in2="effect1_dropShadow" result="shape"/>
</filter>
<filter id="filter1_d" x="78.0712" y="0.171265" width="44.653" height="41.7691" filterUnits="userSpaceOnUse" color-interpolation-filters="sRGB">
<feFlood flood-opacity="0" result="BackgroundImageFix"/>
<feColorMatrix in="SourceAlpha" type="matrix" values="0 0 0 0 0 0 0 0 0 0 0 0 0 0 0 0 0 0 127 0"/>
<feOffset dx="2" dy="2"/>
<feGaussianBlur stdDeviation="2"/>
<feColorMatrix type="matrix" values="0 0 0 0 0 0 0 0 0 0 0 0 0 0 0 0 0 0 0.15 0"/>
<feBlend mode="normal" in2="BackgroundImageFix" result="effect1_dropShadow"/>
<feBlend mode="normal" in="SourceGraphic" in2="effect1_dropShadow" result="shape"/>
</filter>
<linearGradient id="paint0_linear" x1="85.6126" y1="33.3594" x2="85.6126" y2="35.7271" gradientUnits="userSpaceOnUse">
<stop stop-color="#636262"/>
<stop offset="1" stop-color="#212020"/>
</linearGradient>
</defs>
</svg>
