<svg width="94" height="94" viewBox="0 0 94 94" fill="none" xmlns="http://www.w3.org/2000/svg">
<path d="M73.9998 68V14C73.9998 10.8174 72.7355 7.76516 70.4851 5.51472C68.2346 3.26428 65.1824 2 61.9998 2H12.7998C19.3998 2 22.9998 7.4 22.9998 14V80C22.9998 83.1826 24.2641 86.2348 26.5145 88.4853C28.765 90.7357 31.8172 92 34.9998 92" stroke="white" stroke-width="3" stroke-linecap="round" stroke-linejoin="round"/>
<path d="M12.8 2C6.87923 2 2.88989 6.34573 2.13149 12.005C1.98477 13.0998 2.89543 14 4 14H23M80 68H35C38.1826 68 41.2348 69.2643 43.4853 71.5147C45.7357 73.7652 47 76.8174 47 80C47 83.1826 45.7357 86.2348 43.4853 88.4853C41.2348 90.7357 38.1826 92 35 92H80C83.1826 92 86.2348 90.7357 88.4853 88.4853C90.7357 86.2348 92 83.1826 92 80C92 76.8174 90.7357 73.7652 88.4853 71.5147C86.2348 69.2643 83.1826 68 80 68Z" stroke="white" stroke-width="3" stroke-linecap="round" stroke-linejoin="round"/>
<path d="M38.0001 50H59.0001M38.0001 20H59.0001H38.0001ZM38.0001 35H59.0001H38.0001Z" stroke="white" stroke-width="3" stroke-linecap="round" stroke-linejoin="round"/>
</svg>
