<svg width="127" height="94" viewBox="0 0 127 94" fill="none" xmlns="http://www.w3.org/2000/svg">
<path d="M100.182 26.5455V6.90909C100.182 5.60712 99.6646 4.35847 98.744 3.43784C97.8233 2.51721 96.5747 2 95.2727 2H6.90909C5.60712 2 4.35847 2.51721 3.43784 3.43784C2.51721 4.35847 2 5.60712 2 6.90909V62.5455C2 63.8474 2.51721 65.0961 3.43784 66.0167C4.35847 66.9373 5.60712 67.4546 6.90909 67.4546H73.5909M2 18.3636H100.182M18.5682 34.7273H51.0909M18.3636 51.0909H32.6818" stroke="white" stroke-width="3" stroke-miterlimit="10" stroke-linecap="round" stroke-linejoin="round"/>
<path d="M100.182 71.5455V79.7273M87.9092 38.8182V57.2727C87.9092 58.3773 88.8046 59.2727 89.9092 59.2727H110.455C111.559 59.2727 112.455 58.3773 112.455 57.2727V38.8182C112.455 35.5633 111.162 32.4417 108.86 30.1401C106.558 27.8385 103.437 26.5455 100.182 26.5455C96.927 26.5455 93.8054 27.8385 91.5038 30.1401C89.2022 32.4417 87.9092 35.5633 87.9092 38.8182ZM77.6365 92H122.727C123.832 92 124.727 91.1046 124.727 90V61.2727C124.727 60.1682 123.832 59.2727 122.727 59.2727H77.6365C76.5319 59.2727 75.6365 60.1682 75.6365 61.2727V90C75.6365 91.1046 76.5319 92 77.6365 92Z" stroke="white" stroke-width="3" stroke-miterlimit="10" stroke-linecap="round" stroke-linejoin="round"/>
</svg>
