<svg width="91" height="91" viewBox="0 0 91 91" fill="none" xmlns="http://www.w3.org/2000/svg">
<path d="M45.1758 89.1914C69.2519 89.1914 88.7695 69.6738 88.7695 45.5977C88.7695 21.5215 69.2519 2.00391 45.1758 2.00391C21.0996 2.00391 1.58203 21.5215 1.58203 45.5977C1.58203 69.6738 21.0996 89.1914 45.1758 89.1914Z" stroke="white" stroke-width="3" stroke-miterlimit="10" stroke-linecap="round" stroke-linejoin="round"/>
<path d="M10.3008 45.5977H19.0195M45.1758 10.7227V19.44M71.332 45.5977H80.0508M64.0664 28.1602L69.8789 22.3477" stroke="white" stroke-width="3" stroke-miterlimit="10" stroke-linecap="round" stroke-linejoin="round"/>
<path d="M20.7386 23.1381C20.5726 22.9072 20.48 22.6318 20.4727 22.3476C20.4725 22.094 20.5387 21.8448 20.6647 21.6247C20.7906 21.4046 20.972 21.2213 21.1908 21.093C21.4096 20.9647 21.6581 20.896 21.9117 20.8935C22.1653 20.891 22.4151 20.955 22.6364 21.079L49.8795 38.2564C50.9652 38.9511 51.8832 39.8778 52.5676 40.9699C53.2521 42.062 53.6858 43.2922 53.8377 44.5721C53.9895 45.852 53.8557 47.1496 53.4458 48.3715C53.0359 49.5934 52.3602 50.7092 51.4672 51.6386C50.5743 52.568 49.4864 53.2879 48.2819 53.7463C47.0773 54.2048 45.7861 54.3904 44.5012 54.2899C43.2163 54.1894 41.9697 53.8052 40.8511 53.165C39.7325 52.5248 38.7698 51.6446 38.0322 50.5876L20.7386 23.1381Z" stroke="white" stroke-width="3" stroke-miterlimit="10" stroke-linecap="round" stroke-linejoin="round"/>
</svg>
