<svg width="94" height="94" viewBox="0 0 94 94" fill="none" xmlns="http://www.w3.org/2000/svg">
<g opacity="0.9">
<path d="M87.5 2H6.5C4.01472 2 2 4.01472 2 6.5V87.5C2 89.9853 4.01472 92 6.5 92H87.5C89.9853 92 92 89.9853 92 87.5V6.5C92 4.01472 89.9853 2 87.5 2Z" stroke="white" stroke-width="3" stroke-miterlimit="10" stroke-linecap="round" stroke-linejoin="round"/>
<path d="M13.9999 59V35M13.9999 23V16C13.9999 14.8954 14.8953 14 15.9999 14H77.9999C79.1044 14 79.9999 14.8954 79.9999 16V78C79.9999 79.1046 79.1044 80 77.9999 80H15.9999C14.8953 80 13.9999 79.1046 13.9999 78V71V23Z" stroke="white" stroke-width="3" stroke-miterlimit="10" stroke-linecap="round" stroke-linejoin="round"/>
<path d="M50.0001 59C56.6275 59 62.0001 53.6274 62.0001 47C62.0001 40.3726 56.6275 35 50.0001 35C43.3727 35 38.0001 40.3726 38.0001 47C38.0001 53.6274 43.3727 59 50.0001 59Z" stroke="white" stroke-width="3" stroke-miterlimit="10" stroke-linecap="round" stroke-linejoin="round"/>
<path d="M58.5502 38.45L62.7502 34.25M50.0002 29V35V29ZM50.0002 59V65V59ZM32.0002 47H38.0002H32.0002ZM62.0002 47H68.0002H62.0002ZM37.2502 34.25L41.4502 38.45L37.2502 34.25ZM58.5502 55.55L62.7502 59.75L58.5502 55.55ZM37.2502 59.75L41.4502 55.55L37.2502 59.75Z" stroke="white" stroke-width="3" stroke-miterlimit="10" stroke-linecap="round" stroke-linejoin="round"/>
<path d="M10.9999 25C10.9999 23.8954 11.8953 23 12.9999 23H14.9999C16.1045 23 16.9999 23.8954 16.9999 25V33C16.9999 34.1046 16.1045 35 14.9999 35H12.9999C11.8953 35 10.9999 34.1046 10.9999 33V25ZM10.9999 61C10.9999 59.8954 11.8953 59 12.9999 59H14.9999C16.1045 59 16.9999 59.8954 16.9999 61V69C16.9999 70.1046 16.1045 71 14.9999 71H12.9999C11.8953 71 10.9999 70.1046 10.9999 69V61Z" stroke="white" stroke-width="3" stroke-miterlimit="10" stroke-linecap="round" stroke-linejoin="round"/>
</g>
</svg>
