<svg width="94" height="94" viewBox="0 0 94 94" fill="none" xmlns="http://www.w3.org/2000/svg">
<path d="M50.0001 47C53.1921 48.5018 56.6066 49.4628 60.1044 49.8481C61.1635 49.9648 62.0001 50.8365 62.0001 51.9021V57.1716C62.0001 58.9534 64.1544 59.8457 65.4143 58.5858L76.4409 47.5592C76.6123 47.3878 76.8142 47.2494 77.0341 47.1474C85.8556 43.0524 92.0001 35.1845 92.0001 26C92.0001 12.8 79.2501 2 63.5001 2C47.7808 2 35.0499 12.7579 35.0003 25.9228C35.0001 25.974 35.002 26.0246 35.0061 26.0757C35.0353 26.4444 35.1677 28.073 35.3001 29" stroke="white" stroke-width="3" stroke-linecap="round" stroke-linejoin="round"/>
<path d="M63.4998 27.5C64.3283 27.5 64.9998 26.8284 64.9998 26C64.9998 25.1716 64.3283 24.5 63.4998 24.5C62.6714 24.5 61.9998 25.1716 61.9998 26C61.9998 26.8284 62.6714 27.5 63.4998 27.5Z" stroke="white" stroke-width="3" stroke-linecap="round" stroke-linejoin="round"/>
<path d="M51.5 27.5C52.3284 27.5 53 26.8284 53 26C53 25.1716 52.3284 24.5 51.5 24.5C50.6715 24.5 50 25.1716 50 26C50 26.8284 50.6715 27.5 51.5 27.5Z" stroke="white" stroke-width="3" stroke-linecap="round" stroke-linejoin="round"/>
<path d="M75.5002 27.5C76.3286 27.5 77.0002 26.8284 77.0002 26C77.0002 25.1716 76.3286 24.5 75.5002 24.5C74.6718 24.5 74.0002 25.1716 74.0002 26C74.0002 26.8284 74.6718 27.5 75.5002 27.5Z" stroke="white" stroke-width="3" stroke-linecap="round" stroke-linejoin="round"/>
<path d="M55.1 80.45C42.8 78.35 44 75.2 44 73.1V70.1704C44 69.6447 44.2103 69.1432 44.5645 68.7547C46.2631 66.8915 47.6112 64.7338 48.5413 62.3854C49.5721 59.7825 50.0682 56.9987 50 54.2V44.15C50 33.2 42.05 29 35 29C27.95 29 20 33.2 20 44.15V54.2C19.9427 57.0105 20.4584 59.8033 21.5158 62.408C22.4682 64.7543 23.8422 66.9037 25.5674 68.7509C25.9324 69.1417 26.15 69.651 26.15 70.1857V73.1C26.15 75.2 27.2 78.35 15.05 80.45C5.16896 82.1578 2.72847 86.7427 2.16156 90.0091C1.97268 91.0974 2.89543 92 4 92H66C67.1046 92 68.0109 91.0946 67.7557 90.02C66.9719 86.7194 64.0264 82.0396 55.1 80.45Z" stroke="white" stroke-width="3" stroke-linecap="round" stroke-linejoin="round"/>
</svg>
