<svg width="30" height="27" viewBox="0 0 30 27" fill="none" xmlns="http://www.w3.org/2000/svg">
<path d="M27.779 0.0027645C27.4085 0.0297726 27.0449 0.116862 26.7022 0.260636H26.6976C26.3687 0.391307 24.8049 1.05044 22.4274 2.04955L13.9078 5.64473C7.79444 8.22345 1.78498 10.7629 1.78498 10.7629L1.85654 10.7351C1.85654 10.7351 1.44221 10.8716 1.00942 11.1687C0.742046 11.3392 0.511968 11.5623 0.333112 11.8244C0.120755 12.1366 -0.0500533 12.6142 0.0134228 13.108C0.117293 13.9429 0.657417 14.4436 1.0452 14.72C1.4376 14.9998 1.81153 15.1305 1.81153 15.1305H1.82076L7.45629 17.0327C7.70904 17.8457 9.1736 22.6701 9.52561 23.7814C9.73335 24.4451 9.93532 24.8603 10.1881 25.1771C10.3104 25.339 10.4535 25.4743 10.6255 25.583C10.7149 25.6351 10.8102 25.6762 10.9094 25.7056L10.8517 25.6917C10.869 25.6963 10.8828 25.7102 10.8955 25.7148C10.9417 25.7275 10.9729 25.7322 11.0317 25.7414C11.9239 26.012 12.6406 25.4569 12.6406 25.4569L12.6809 25.4246L16.0083 22.3891L21.5849 26.6758L21.7119 26.7301C22.8741 27.2412 24.0513 26.9568 24.6733 26.4549C25.3 25.9496 25.5435 25.3031 25.5435 25.3031L25.5839 25.1991L29.8934 3.07873C30.0157 2.53292 30.0469 2.0218 29.9118 1.52571C29.7726 1.02364 29.4511 0.591831 29.0105 0.314986C28.6405 0.0896256 28.2115 -0.0191506 27.779 0.0027645ZM27.6625 2.37334C27.6579 2.44619 27.6717 2.4381 27.6394 2.57802V2.59074L23.3703 24.481C23.3519 24.5122 23.3207 24.5804 23.2353 24.6486C23.1453 24.7203 23.0737 24.7654 22.6986 24.6163L15.8778 19.3767L11.7577 23.1396L12.6232 17.6005L23.7673 7.19312C24.2267 6.76526 24.0732 6.67506 24.0732 6.67506C24.1055 6.15007 23.3796 6.52126 23.3796 6.52126L9.3271 15.2438L9.32248 15.2207L2.58709 12.9484V12.9438L2.56978 12.9403C2.58159 12.9364 2.59315 12.9318 2.6044 12.9264L2.64133 12.9079L2.67711 12.8952C2.67711 12.8952 8.69119 10.3558 14.8045 7.77709C17.8652 6.48542 20.949 5.18449 23.3207 4.18076C25.6924 3.1828 27.4455 2.45081 27.5448 2.4115C27.6394 2.37449 27.5944 2.37449 27.6625 2.37449V2.37334Z" fill="white"/>
</svg>
