<svg width="30" height="27" viewBox="0 0 30 27" fill="none" xmlns="http://www.w3.org/2000/svg">
<path d="M27.779 0.0027645C27.4093 0.0297152 27.0464 0.116493 26.7044 0.259721C26.703 0.260325 26.7014 0.260636 26.6999 0.260636C26.6984 0.260636 26.6971 0.260836 26.6957 0.261385C26.3628 0.393806 24.8004 1.05233 22.4274 2.04955L13.9078 5.64473C8.08722 8.09995 2.36083 10.5195 1.82569 10.7457C1.82481 10.746 1.82952 10.7456 1.83041 10.7452C1.83129 10.7449 1.83116 10.7439 1.83027 10.7443C1.7327 10.7793 1.37775 10.9158 1.00942 11.1687C0.742046 11.3392 0.511968 11.5623 0.333112 11.8244C0.120755 12.1366 -0.0500533 12.6142 0.0134228 13.108C0.117293 13.9429 0.657417 14.4436 1.0452 14.72C1.41279 14.9821 1.76417 15.1134 1.80713 15.1289C1.81005 15.13 1.81311 15.1305 1.81622 15.1305C1.81923 15.1305 1.82221 15.131 1.82506 15.1319L6.48915 16.7063C7.09663 16.9113 7.56789 17.394 7.75528 18.0072C8.27628 19.7121 9.24769 22.904 9.52561 23.7814C9.73335 24.4451 9.93532 24.8603 10.1881 25.1771C10.3104 25.339 10.4535 25.4743 10.6255 25.583C10.7149 25.6351 10.8102 25.6762 10.9094 25.7056L10.8517 25.6917C10.869 25.6963 10.8828 25.7102 10.8955 25.7148C10.9417 25.7275 10.9729 25.7322 11.0317 25.7414C11.8539 25.9908 12.5271 25.5389 12.6276 25.4665C12.6366 25.46 12.6449 25.4535 12.6536 25.4465L12.6809 25.4246L14.7702 23.5186C15.4864 22.8651 16.5683 22.8195 17.337 23.4104L21.4754 26.5916C21.5481 26.6475 21.6276 26.694 21.7119 26.7301C22.8741 27.2412 24.0513 26.9568 24.6733 26.4549C25.2675 25.9757 25.5173 25.3697 25.5415 25.3082C25.543 25.3046 25.5442 25.3013 25.5457 25.2976C25.5711 25.2321 25.5907 25.1643 25.6041 25.0953L29.8934 3.07873C30.0157 2.53292 30.0469 2.0218 29.9118 1.52571C29.7726 1.02364 29.4511 0.591831 29.0105 0.314986C28.6405 0.0896256 28.2115 -0.0191506 27.779 0.0027645ZM27.6625 2.37334C27.6579 2.44499 27.6712 2.43834 27.641 2.5712C27.6399 2.57566 27.6394 2.58033 27.6394 2.5849C27.6394 2.58878 27.639 2.59266 27.6383 2.59646L23.4119 24.268C23.3844 24.4089 23.3475 24.559 23.2353 24.6486C23.1723 24.6988 23.1183 24.736 22.963 24.7026C22.7825 24.6638 22.6244 24.5592 22.4779 24.4467L16.8844 20.1499C16.3021 19.7026 15.4828 19.7375 14.9406 20.2326C13.8841 21.1975 12.2023 20.2942 12.4232 18.8806L12.5297 18.1994C12.5903 17.8114 12.7792 17.4549 13.0662 17.1868L23.7673 7.19312C24.0558 6.92441 24.0013 6.31926 23.6222 6.42724C23.5451 6.44917 23.4757 6.47737 23.4311 6.49714C23.3963 6.51255 23.3634 6.53131 23.331 6.55139L9.3414 15.2349C9.33448 15.2392 9.3254 15.2353 9.32381 15.2273C9.32299 15.2232 9.32005 15.2199 9.31609 15.2185L2.58914 12.9491C2.58791 12.9487 2.58709 12.9475 2.58709 12.9462C2.58709 12.9448 2.58608 12.9436 2.58467 12.9433L2.584 12.9432C2.58013 12.9424 2.57974 12.9368 2.58343 12.9354C2.59052 12.9327 2.59752 12.9297 2.6044 12.9264L2.64133 12.9079C2.66518 12.8995 2.685 12.8919 2.70831 12.882C3.18096 12.6825 8.94718 10.2478 14.8045 7.77709C17.8652 6.48542 20.949 5.18449 23.3207 4.18076C25.6924 3.1828 27.4455 2.45081 27.5448 2.4115C27.6388 2.37471 27.5949 2.3745 27.6613 2.37449C27.6619 2.37449 27.6625 2.37398 27.6625 2.37334Z" fill="#2B2B2B"/>
</svg>
