<svg width="407" height="43" viewBox="0 0 407 43" fill="none" xmlns="http://www.w3.org/2000/svg">
<path d="M26.2967 7.079H16.4077V33.6636H9.75594V7.079H0V1.75331H26.2967V7.079Z" fill="white"/>
<path d="M24.0794 21.5877C24.0794 19.2353 24.5377 17.1386 25.4541 15.2977C26.3706 13.4567 27.6862 12.0321 29.4009 11.024C31.1303 10.0158 33.1332 9.51172 35.4096 9.51172C38.6468 9.51172 41.2854 10.4907 43.3252 12.4485C45.3799 14.4064 46.5255 17.0656 46.762 20.4261L46.8063 22.0479C46.8063 25.686 45.779 28.6082 43.7243 30.8145C41.6697 33.0061 38.9129 34.1019 35.454 34.1019C31.995 34.1019 29.2309 33.0061 27.1614 30.8145C25.1068 28.6228 24.0794 25.6422 24.0794 21.8726V21.5877ZM30.4873 22.0479C30.4873 24.298 30.916 26.0221 31.7733 27.2202C32.6307 28.4037 33.8575 28.9954 35.454 28.9954C37.006 28.9954 38.2181 28.411 39.0903 27.2421C39.9624 26.0586 40.3985 24.1738 40.3985 21.5877C40.3985 19.3814 39.9624 17.6719 39.0903 16.4592C38.2181 15.2465 36.9913 14.6402 35.4096 14.6402C33.8428 14.6402 32.6307 15.2465 31.7733 16.4592C30.916 17.6573 30.4873 19.5202 30.4873 22.0479Z" fill="white"/>
<path d="M56.7618 9.95005L56.9614 12.6019C58.6613 10.5418 60.9598 9.51172 63.8571 9.51172C66.9464 9.51172 69.0676 10.7171 70.2206 13.1279C71.9057 10.7171 74.3077 9.51172 77.4267 9.51172C80.0283 9.51172 81.9647 10.2642 83.2359 11.7691C84.5071 13.2594 85.1427 15.5095 85.1427 18.5194V33.6636H78.7127V18.5413C78.7127 17.1971 78.4466 16.2181 77.9145 15.6045C77.3823 14.9762 76.4437 14.6621 75.0986 14.6621C73.1769 14.6621 71.8466 15.568 71.1075 17.3797L71.1297 33.6636H64.7218V18.5632C64.7218 17.1898 64.4483 16.1962 63.9014 15.5826C63.3545 14.9689 62.4232 14.6621 61.1077 14.6621C59.2895 14.6621 57.9739 15.4072 57.1609 16.8976V33.6636H50.7531V9.95005H56.7618Z" fill="white"/>
<path d="M111.705 22.026C111.705 25.8248 110.885 28.7909 109.244 30.9241C107.604 33.0426 105.312 34.1019 102.371 34.1019C99.7693 34.1019 97.6924 33.1157 96.1403 31.1432L95.8521 33.6636H90.0872V0H96.4951V12.0759C97.9733 10.3665 99.9171 9.51172 102.326 9.51172C105.253 9.51172 107.544 10.5783 109.2 12.7115C110.87 14.8301 111.705 17.818 111.705 21.6753V22.026ZM105.298 21.5658C105.298 19.1696 104.913 17.4235 104.145 16.3277C103.376 15.2173 102.23 14.6621 100.708 14.6621C98.668 14.6621 97.2638 15.4876 96.4951 17.1386V26.4969C97.2785 28.1626 98.6976 28.9954 100.752 28.9954C102.822 28.9954 104.182 27.9873 104.832 25.9709C105.142 25.0066 105.298 23.5382 105.298 21.5658Z" fill="white"/>
<path d="M126.716 34.1019C123.198 34.1019 120.331 33.0353 118.113 30.9021C115.911 28.7689 114.81 25.9271 114.81 22.3767V21.763C114.81 19.3814 115.275 17.2555 116.207 15.3853C117.138 13.5005 118.453 12.054 120.153 11.0459C121.868 10.0231 123.819 9.51172 126.007 9.51172C129.288 9.51172 131.868 10.5345 133.745 12.58C135.637 14.6256 136.583 17.5258 136.583 21.2808V23.867H121.306C121.513 25.4157 122.134 26.6577 123.169 27.5928C124.218 28.5279 125.541 28.9954 127.138 28.9954C129.606 28.9954 131.535 28.1115 132.925 26.3435L136.073 29.8282C135.112 31.1724 133.812 32.2244 132.171 32.9842C130.53 33.7294 128.712 34.1019 126.716 34.1019ZM125.985 14.6402C124.713 14.6402 123.679 15.0639 122.88 15.9113C122.097 16.7588 121.594 17.9715 121.373 19.5494H130.286V19.0454C130.257 17.6427 129.872 16.5615 129.133 15.8017C128.394 15.0274 127.345 14.6402 125.985 14.6402Z" fill="white"/>
<path d="M153.723 15.8894C152.85 15.7725 152.082 15.7141 151.417 15.7141C148.992 15.7141 147.403 16.525 146.649 18.1468V33.6636H140.242V9.95005H146.295L146.472 12.7773C147.758 10.6002 149.539 9.51172 151.816 9.51172C152.525 9.51172 153.19 9.60669 153.811 9.79664L153.723 15.8894Z" fill="white"/>
<path d="M155.452 21.6315C155.452 17.9934 156.324 15.0639 158.068 12.843C159.827 10.6222 162.192 9.51172 165.164 9.51172C167.795 9.51172 169.842 10.403 171.305 12.1855L171.571 9.95005H177.381V32.8746C177.381 34.9494 176.9 36.7538 175.939 38.288C174.993 39.8221 173.656 40.991 171.926 41.7946C170.197 42.5982 168.172 43 165.851 43C164.092 43 162.377 42.6493 160.707 41.948C159.037 41.2613 157.773 40.37 156.915 39.2742L159.753 35.4169C161.35 37.1848 163.286 38.0688 165.563 38.0688C167.263 38.0688 168.586 37.6159 169.532 36.71C170.478 35.8187 170.951 34.5476 170.951 32.8965V31.6254C169.472 33.2764 167.529 34.1019 165.119 34.1019C162.237 34.1019 159.901 32.9915 158.113 30.7706C156.339 28.5352 155.452 25.5765 155.452 21.8945V21.6315ZM161.86 22.0917C161.86 24.2396 162.296 25.9271 163.168 27.1544C164.04 28.3671 165.238 28.9735 166.76 28.9735C168.711 28.9735 170.108 28.2503 170.951 26.8038V16.8318C170.093 15.3853 168.711 14.6621 166.804 14.6621C165.267 14.6621 164.055 15.283 163.168 16.525C162.296 17.7669 161.86 19.6225 161.86 22.0917Z" fill="white"/>
<path d="M192.746 25.0724C192.746 23.5967 193.16 22.2305 193.988 20.974C194.831 19.7175 196.368 18.3221 198.6 16.788C197.639 15.5168 196.885 14.326 196.338 13.2156C195.791 12.0906 195.518 10.9217 195.518 9.70897C195.518 7.22511 196.309 5.2088 197.89 3.66004C199.487 2.09667 201.63 1.31498 204.32 1.31498C206.73 1.31498 208.703 2.02362 210.24 3.44088C211.793 4.85814 212.569 6.62606 212.569 8.74465C212.569 11.287 211.268 13.5297 208.666 15.473L206.183 17.2482L211.748 23.6478C212.62 21.9529 213.056 20.0827 213.056 18.0372H218.511C218.511 22.1867 217.543 25.5472 215.606 28.1188L220.44 33.6636H213.167L211.504 31.7788C209.124 33.3276 206.39 34.1019 203.3 34.1019C200.108 34.1019 197.55 33.2764 195.629 31.6254C193.707 29.9597 192.746 27.7754 192.746 25.0724ZM203.611 29.0173C205.148 29.0173 206.604 28.5936 207.979 27.7462L201.615 20.4699L201.15 20.7987C199.834 21.9091 199.176 23.2168 199.176 24.7217C199.176 25.9929 199.583 27.0302 200.396 27.8338C201.224 28.6228 202.295 29.0173 203.611 29.0173ZM201.261 9.62131C201.261 10.7171 201.911 12.0979 203.212 13.7635L204.919 12.6458C205.791 12.0906 206.39 11.5499 206.715 11.024C207.055 10.498 207.225 9.86969 207.225 9.13914C207.225 8.4086 206.952 7.77302 206.405 7.23242C205.858 6.69181 205.156 6.42151 204.298 6.42151C203.382 6.42151 202.643 6.71373 202.081 7.29817C201.534 7.8826 201.261 8.65698 201.261 9.62131Z" fill="white"/>
<path d="M241.814 22.4205V33.6636H235.162V1.75331H247.756C250.181 1.75331 252.309 2.19164 254.142 3.0683C255.99 3.94495 257.409 5.19419 258.399 6.816C259.39 8.42321 259.885 10.2569 259.885 12.317C259.885 15.4438 258.798 17.913 256.626 19.7248C254.467 21.5219 251.474 22.4205 247.646 22.4205H241.814ZM241.814 17.0948H247.756C249.516 17.0948 250.853 16.6857 251.77 15.8675C252.701 15.0493 253.167 13.8804 253.167 12.3609C253.167 10.7975 252.701 9.53364 251.77 8.56932C250.838 7.60499 249.552 7.10822 247.912 7.079H241.814V17.0948Z" fill="white"/>
<path d="M277.689 33.6636C277.394 33.0938 277.18 32.3852 277.046 31.5377C275.494 33.2472 273.477 34.1019 270.993 34.1019C268.643 34.1019 266.692 33.4298 265.14 32.0856C263.603 30.7414 262.834 29.0466 262.834 27.001C262.834 24.4879 263.773 22.5593 265.65 21.2151C267.542 19.8709 270.269 19.1915 273.831 19.1769H276.78V17.818C276.78 16.7222 276.492 15.8456 275.916 15.1881C275.354 14.5306 274.46 14.2018 273.233 14.2018C272.154 14.2018 271.304 14.4575 270.683 14.9689C270.077 15.4803 269.774 16.1816 269.774 17.0729H263.366C263.366 15.6995 263.795 14.4283 264.652 13.2594C265.509 12.0906 266.721 11.1774 268.288 10.5199C269.855 9.84778 271.614 9.51172 273.565 9.51172C276.522 9.51172 278.865 10.2496 280.594 11.7253C282.338 13.1864 283.21 15.2465 283.21 17.9057V28.1845C283.225 30.4346 283.543 32.1368 284.164 33.291V33.6636H277.689ZM272.39 29.2584C273.336 29.2584 274.208 29.0539 275.007 28.6448C275.805 28.221 276.396 27.6585 276.78 26.9572V22.8807H274.386C271.178 22.8807 269.471 23.9766 269.264 26.1682L269.242 26.5408C269.242 27.3298 269.523 27.98 270.084 28.4913C270.646 29.0027 271.415 29.2584 272.39 29.2584Z" fill="white"/>
<path d="M301.614 15.8894C300.742 15.7725 299.973 15.7141 299.308 15.7141C296.884 15.7141 295.295 16.525 294.541 18.1468V33.6636H288.133V9.95005H294.186L294.363 12.7773C295.649 10.6002 297.43 9.51172 299.707 9.51172C300.416 9.51172 301.082 9.60669 301.702 9.79664L301.614 15.8894Z" fill="white"/>
<path d="M313.498 4.12029V9.95005H317.6V14.5963H313.498V26.4312C313.498 27.3079 313.668 27.9361 314.008 28.316C314.348 28.6959 314.999 28.8858 315.959 28.8858C316.669 28.8858 317.297 28.8347 317.844 28.7324V33.5321C316.588 33.912 315.294 34.1019 313.964 34.1019C309.47 34.1019 307.179 31.8592 307.09 27.3736V14.5963H303.587V9.95005H307.09V4.12029H313.498Z" fill="white"/>
<path d="M327.068 9.95005L327.267 12.6896C328.982 10.571 331.281 9.51172 334.163 9.51172C336.706 9.51172 338.598 10.2496 339.839 11.7253C341.081 13.201 341.717 15.4072 341.746 18.344V33.6636H335.338V18.4975C335.338 17.1532 335.043 16.1816 334.451 15.5826C333.86 14.9689 332.877 14.6621 331.502 14.6621C329.699 14.6621 328.346 15.4218 327.445 16.9414V33.6636H321.037V9.95005H327.068Z" fill="white"/>
<path d="M357.666 34.1019C354.148 34.1019 351.28 33.0353 349.063 30.9021C346.861 28.7689 345.759 25.9271 345.759 22.3767V21.763C345.759 19.3814 346.225 17.2555 347.156 15.3853C348.087 13.5005 349.403 12.054 351.103 11.0459C352.818 10.0231 354.769 9.51172 356.956 9.51172C360.238 9.51172 362.817 10.5345 364.695 12.58C366.587 14.6256 367.533 17.5258 367.533 21.2808V23.867H352.256C352.463 25.4157 353.084 26.6577 354.118 27.5928C355.168 28.5279 356.491 28.9954 358.087 28.9954C360.556 28.9954 362.485 28.1115 363.874 26.3435L367.023 29.8282C366.062 31.1724 364.761 32.2244 363.12 32.9842C361.48 33.7294 359.662 34.1019 357.666 34.1019ZM356.934 14.6402C355.663 14.6402 354.628 15.0639 353.83 15.9113C353.047 16.7588 352.544 17.9715 352.322 19.5494H361.236V19.0454C361.206 17.6427 360.822 16.5615 360.083 15.8017C359.344 15.0274 358.294 14.6402 356.934 14.6402Z" fill="white"/>
<path d="M384.672 15.8894C383.8 15.7725 383.031 15.7141 382.366 15.7141C379.942 15.7141 378.353 16.525 377.599 18.1468V33.6636H371.191V9.95005H377.244L377.422 12.7773C378.708 10.6002 380.489 9.51172 382.765 9.51172C383.475 9.51172 384.14 9.60669 384.761 9.79664L384.672 15.8894Z" fill="white"/>
<path d="M400.77 27.1106C400.77 26.3362 400.378 25.7299 399.594 25.2915C398.826 24.8386 397.584 24.4368 395.869 24.0861C390.164 22.9027 387.311 20.5065 387.311 16.8976C387.311 14.7936 388.19 13.0403 389.949 11.6376C391.723 10.2204 394.036 9.51172 396.889 9.51172C399.934 9.51172 402.366 10.2204 404.184 11.6376C406.017 13.0549 406.934 14.8959 406.934 17.1606H400.526C400.526 16.2547 400.23 15.5095 399.639 14.9251C399.047 14.326 398.124 14.0265 396.867 14.0265C395.788 14.0265 394.953 14.2676 394.362 14.7497C393.77 15.2319 393.475 15.8456 393.475 16.5907C393.475 17.2921 393.807 17.8619 394.473 18.3002C395.152 18.7239 396.291 19.0965 397.887 19.4179C399.484 19.7248 400.829 20.0754 401.922 20.4699C405.308 21.6972 407 23.8231 407 26.8476C407 29.01 406.061 30.7633 404.184 32.1075C402.307 33.4371 399.883 34.1019 396.911 34.1019C394.901 34.1019 393.113 33.7513 391.546 33.0499C389.994 32.334 388.774 31.3624 387.887 30.1351C387 28.8931 386.557 27.5562 386.557 26.1244H392.632C392.691 27.2494 393.113 28.1115 393.896 28.7105C394.679 29.3095 395.729 29.6091 397.045 29.6091C398.271 29.6091 399.195 29.3826 399.816 28.9297C400.452 28.4621 400.77 27.8558 400.77 27.1106Z" fill="white"/>
</svg>
