<svg width="491" height="49" viewBox="0 0 491 49" fill="none" xmlns="http://www.w3.org/2000/svg">
<path d="M31.724 8.06677H19.7941V38.3609H11.7694V8.06677H0V1.99796H31.724V8.06677Z" fill="black"/>
<path d="M29.0491 24.5999C29.0491 21.9193 29.6019 19.5301 30.7076 17.4322C31.8132 15.3344 33.4003 13.711 35.4688 12.5622C37.5552 11.4134 39.9715 10.8389 42.7177 10.8389C46.6231 10.8389 49.8062 11.9545 52.267 14.1855C54.7458 16.4166 56.1278 19.4468 56.4131 23.2762L56.4666 25.1244C56.4666 29.2701 55.2272 32.6001 52.7485 35.1142C50.2698 37.6116 46.944 38.8603 42.7712 38.8603C38.5984 38.8603 35.2638 37.6116 32.7672 35.1142C30.2885 32.6167 29.0491 29.2202 29.0491 24.9246V24.5999ZM36.7795 25.1244C36.7795 27.6884 37.2967 29.6531 38.331 31.0183C39.3652 32.367 40.8453 33.0413 42.7712 33.0413C44.6437 33.0413 46.1059 32.3753 47.158 31.0433C48.2102 29.6947 48.7362 27.5469 48.7362 24.5999C48.7362 22.0858 48.2102 20.1378 47.158 18.7559C46.1059 17.3739 44.6258 16.683 42.7177 16.683C40.8275 16.683 39.3652 17.3739 38.331 18.7559C37.2967 20.1211 36.7795 22.244 36.7795 25.1244Z" fill="black"/>
<path d="M68.4768 11.3384L68.7175 14.3603C70.7683 12.0127 73.5412 10.8389 77.0364 10.8389C80.7634 10.8389 83.3223 12.2125 84.7133 14.9597C86.7462 12.2125 89.644 10.8389 93.4066 10.8389C96.5451 10.8389 98.8812 11.6964 100.415 13.4113C101.948 15.1096 102.715 17.6736 102.715 21.1035V38.3609H94.958V21.1284C94.958 19.5967 94.6371 18.4811 93.9951 17.7819C93.3531 17.0659 92.2208 16.708 90.598 16.708C88.2798 16.708 86.6749 17.7402 85.7832 19.8048L85.81 38.3609H78.0796V21.1534C78.0796 19.5883 77.7497 18.4562 77.0899 17.7569C76.4301 17.0576 75.3066 16.708 73.7195 16.708C71.5261 16.708 69.9391 17.5571 68.9583 19.2554V38.3609H61.2279V11.3384H68.4768Z" fill="black"/>
<path d="M134.76 25.0994C134.76 29.4283 133.77 32.8082 131.791 35.239C129.812 37.6532 127.048 38.8603 123.499 38.8603C120.36 38.8603 117.855 37.7365 115.983 35.4888L115.635 38.3609H108.68V0H116.411V13.761C118.194 11.8129 120.539 10.8389 123.445 10.8389C126.976 10.8389 129.74 12.0544 131.738 14.4852C133.753 16.8994 134.76 20.3043 134.76 24.6998V25.0994ZM127.03 24.5749C127.03 21.8444 126.566 19.8547 125.639 18.606C124.712 17.3406 123.33 16.708 121.493 16.708C119.032 16.708 117.338 17.6487 116.411 19.5301V30.1942C117.356 32.0923 119.068 33.0413 121.546 33.0413C124.043 33.0413 125.683 31.8925 126.468 29.5948C126.843 28.4959 127.03 26.8226 127.03 24.5749Z" fill="black"/>
<path d="M152.869 38.8603C148.625 38.8603 145.165 37.6449 142.491 35.2141C139.834 32.7832 138.505 29.5449 138.505 25.499V24.7997C138.505 22.0858 139.067 19.6633 140.19 17.5321C141.314 15.3843 142.901 13.736 144.951 12.5872C147.02 11.4217 149.374 10.8389 152.013 10.8389C155.972 10.8389 159.084 12.0044 161.348 14.3354C163.631 16.6663 164.772 19.9713 164.772 24.2503V27.1972H146.342C146.592 28.9621 147.341 30.3773 148.589 31.4429C149.855 32.5085 151.451 33.0413 153.377 33.0413C156.355 33.0413 158.682 32.034 160.359 30.0194L164.157 33.9903C162.998 35.5221 161.429 36.7209 159.449 37.5866C157.47 38.4358 155.276 38.8603 152.869 38.8603ZM151.986 16.683C150.453 16.683 149.205 17.1658 148.242 18.1315C147.296 19.0972 146.69 20.4791 146.423 22.2773H157.176V21.7029C157.14 20.1045 156.676 18.8724 155.785 18.0066C154.893 17.1242 153.627 16.683 151.986 16.683Z" fill="black"/>
<path d="M185.449 18.1065C184.397 17.9733 183.47 17.9067 182.667 17.9067C179.743 17.9067 177.826 18.8308 176.916 20.6789V38.3609H169.186V11.3384H176.488L176.702 14.5601C178.254 12.0793 180.402 10.8389 183.149 10.8389C184.005 10.8389 184.807 10.9472 185.556 11.1636L185.449 18.1065Z" fill="black"/>
<path d="M187.535 24.6498C187.535 20.5041 188.588 17.1658 190.692 14.6351C192.814 12.1043 195.667 10.8389 199.251 10.8389C202.426 10.8389 204.895 11.8546 206.661 13.8858L206.982 11.3384H213.99V37.4618C213.99 39.826 213.41 41.8823 212.251 43.6305C211.11 45.3787 209.496 46.7107 207.41 47.6264C205.323 48.5421 202.88 49 200.081 49C197.959 49 195.89 48.6004 193.875 47.8012C191.86 47.0187 190.335 46.0031 189.301 44.7543L192.725 40.3588C194.651 42.3734 196.987 43.3807 199.733 43.3807C201.784 43.3807 203.38 42.8646 204.521 41.8323C205.662 40.8167 206.233 39.3682 206.233 37.4867V36.0382C204.45 37.9196 202.105 38.8603 199.198 38.8603C195.721 38.8603 192.903 37.595 190.745 35.0642C188.605 32.5168 187.535 29.1453 187.535 24.9495V24.6498ZM195.266 25.1743C195.266 27.6218 195.792 29.5449 196.844 30.9434C197.896 32.3253 199.341 33.0163 201.177 33.0163C203.531 33.0163 205.216 32.1921 206.233 30.5438V19.1804C205.199 17.5321 203.531 16.708 201.231 16.708C199.376 16.708 197.914 17.4156 196.844 18.8308C195.792 20.246 195.266 22.3605 195.266 25.1743Z" fill="black"/>
<path d="M232.527 28.5708C232.527 26.8892 233.026 25.3325 234.025 23.9006C235.041 22.4687 236.896 20.8787 239.589 19.1305C238.429 17.682 237.52 16.325 236.86 15.0596C236.2 13.7776 235.87 12.4456 235.87 11.0637C235.87 8.23327 236.824 5.93561 238.733 4.17074C240.658 2.38923 243.244 1.49847 246.49 1.49847C249.396 1.49847 251.777 2.30598 253.632 3.921C255.504 5.53602 256.44 7.55063 256.44 9.96483C256.44 12.8619 254.871 15.4176 251.732 17.632L248.737 19.6549L255.451 26.9475C256.503 25.0161 257.029 22.885 257.029 20.554H263.609C263.609 25.2825 262.441 29.112 260.105 32.0423L265.936 38.3609H257.162L255.156 36.213C252.285 37.9779 248.986 38.8603 245.259 38.8603C241.407 38.8603 238.322 37.9196 236.004 36.0382C233.686 34.1402 232.527 31.651 232.527 28.5708ZM245.634 33.0663C247.488 33.0663 249.245 32.5834 250.903 31.6177L243.226 23.3262L242.665 23.7008C241.078 24.9662 240.284 26.4563 240.284 28.1713C240.284 29.6198 240.774 30.8019 241.755 31.7176C242.754 32.6167 244.047 33.0663 245.634 33.0663ZM242.798 10.9638C242.798 12.2125 243.583 13.7859 245.152 15.684L247.212 14.4103C248.264 13.7776 248.986 13.1616 249.379 12.5622C249.789 11.9628 249.994 11.2469 249.994 10.4144C249.994 9.58189 249.664 8.85763 249.004 8.24159C248.344 7.62555 247.497 7.31753 246.463 7.31753C245.357 7.31753 244.466 7.65053 243.788 8.31651C243.128 8.9825 242.798 9.86493 242.798 10.9638Z" fill="black"/>
<path d="M291.722 25.5489V38.3609H283.697V1.99796H298.891C301.815 1.99796 304.383 2.49745 306.594 3.49643C308.823 4.49541 310.535 5.91896 311.73 7.76707C312.925 9.59854 313.522 11.6881 313.522 14.0357C313.522 17.5987 312.211 20.4125 309.59 22.4771C306.986 24.525 303.375 25.5489 298.757 25.5489H291.722ZM291.722 19.4801H298.891C301.013 19.4801 302.626 19.0139 303.732 18.0815C304.855 17.1492 305.417 15.8172 305.417 14.0856C305.417 12.3041 304.855 10.8639 303.732 9.76504C302.609 8.66616 301.057 8.10007 299.078 8.06677H291.722V19.4801Z" fill="black"/>
<path d="M335.001 38.3609C334.645 37.7115 334.386 36.904 334.226 35.9383C332.353 37.8863 329.919 38.8603 326.923 38.8603C324.088 38.8603 321.734 38.0945 319.862 36.5627C318.007 35.0309 317.08 33.0996 317.08 30.7686C317.08 27.9049 318.212 25.7071 320.477 24.1753C322.759 22.6436 326.049 21.8694 330.347 21.8527H333.905V20.3043C333.905 19.0556 333.557 18.0566 332.861 17.3073C332.184 16.5581 331.105 16.1835 329.625 16.1835C328.323 16.1835 327.298 16.4749 326.549 17.0576C325.818 17.6403 325.452 18.4395 325.452 19.4551H317.722C317.722 17.8901 318.239 16.4416 319.273 15.1096C320.307 13.7776 321.77 12.737 323.66 11.9878C325.55 11.2219 327.672 10.8389 330.026 10.8389C333.593 10.8389 336.419 11.6797 338.505 13.3614C340.61 15.0263 341.662 17.3739 341.662 20.4042V32.1172C341.68 34.6813 342.063 36.621 342.812 37.9363V38.3609H335.001ZM328.608 33.341C329.75 33.341 330.802 33.1079 331.765 32.6417C332.728 32.1588 333.441 31.5178 333.905 30.7187V26.0734H331.016C327.146 26.0734 325.086 27.3221 324.837 29.8196L324.81 30.2441C324.81 31.1432 325.149 31.8841 325.826 32.4669C326.504 33.0496 327.431 33.341 328.608 33.341Z" fill="black"/>
<path d="M363.863 18.1065C362.811 17.9733 361.884 17.9067 361.081 17.9067C358.157 17.9067 356.24 18.8308 355.33 20.6789V38.3609H347.6V11.3384H354.902L355.116 14.5601C356.668 12.0793 358.817 10.8389 361.563 10.8389C362.419 10.8389 363.221 10.9472 363.97 11.1636L363.863 18.1065Z" fill="black"/>
<path d="M378.201 4.69521V11.3384H383.149V16.633H378.201V30.1193C378.201 31.1182 378.406 31.8342 378.816 32.2671C379.226 32.7 380.011 32.9164 381.17 32.9164C382.026 32.9164 382.783 32.8581 383.443 32.7416V38.211C381.928 38.6439 380.367 38.8603 378.762 38.8603C373.341 38.8603 370.577 36.3046 370.47 31.1932V16.633H366.244V11.3384H370.47V4.69521H378.201Z" fill="black"/>
<path d="M394.571 11.3384L394.811 14.4602C396.88 12.046 399.653 10.8389 403.13 10.8389C406.198 10.8389 408.48 11.6797 409.978 13.3614C411.476 15.043 412.243 17.5571 412.278 20.9037V38.3609H404.548V21.0785C404.548 19.5467 404.191 18.4395 403.478 17.7569C402.765 17.0576 401.579 16.708 399.921 16.708C397.745 16.708 396.113 17.5737 395.025 19.3053V38.3609H387.295V11.3384H394.571Z" fill="black"/>
<path d="M431.484 38.8603C427.24 38.8603 423.78 37.6449 421.105 35.2141C418.448 32.7832 417.12 29.5449 417.12 25.499V24.7997C417.12 22.0858 417.682 19.6633 418.805 17.5321C419.929 15.3843 421.516 13.736 423.566 12.5872C425.635 11.4217 427.989 10.8389 430.628 10.8389C434.587 10.8389 437.699 12.0044 439.963 14.3354C442.246 16.6663 443.387 19.9713 443.387 24.2503V27.1972H424.957C425.207 28.9621 425.956 30.3773 427.204 31.4429C428.47 32.5085 430.066 33.0413 431.992 33.0413C434.97 33.0413 437.297 32.034 438.974 30.0194L442.772 33.9903C441.613 35.5221 440.044 36.7209 438.064 37.5866C436.085 38.4358 433.891 38.8603 431.484 38.8603ZM430.601 16.683C429.068 16.683 427.819 17.1658 426.857 18.1315C425.911 19.0972 425.305 20.4791 425.038 22.2773H435.791V21.7029C435.755 20.1045 435.291 18.8724 434.4 18.0066C433.508 17.1242 432.242 16.683 430.601 16.683Z" fill="black"/>
<path d="M464.064 18.1065C463.012 17.9733 462.085 17.9067 461.282 17.9067C458.358 17.9067 456.441 18.8308 455.531 20.6789V38.3609H447.801V11.3384H455.103L455.317 14.5601C456.869 12.0793 459.017 10.8389 461.764 10.8389C462.62 10.8389 463.422 10.9472 464.171 11.1636L464.064 18.1065Z" fill="black"/>
<path d="M483.484 30.8935C483.484 30.011 483.011 29.3201 482.066 28.8206C481.139 28.3045 479.641 27.8466 477.572 27.447C470.689 26.0984 467.247 23.3678 467.247 19.2554C467.247 16.8578 468.308 14.8598 470.43 13.2615C472.57 11.6464 475.361 10.8389 478.803 10.8389C482.476 10.8389 485.41 11.6464 487.603 13.2615C489.814 14.8765 490.92 16.9743 490.92 19.555H483.189C483.189 18.5228 482.833 17.6736 482.119 17.0076C481.406 16.325 480.292 15.9837 478.776 15.9837C477.474 15.9837 476.467 16.2584 475.753 16.8078C475.04 17.3573 474.683 18.0566 474.683 18.9057C474.683 19.7049 475.084 20.3542 475.887 20.8537C476.707 21.3366 478.08 21.7611 480.006 22.1274C481.932 22.4771 483.555 22.8767 484.875 23.3262C488.958 24.7248 491 27.1473 491 30.5938C491 33.0579 489.868 35.0559 487.603 36.5877C485.338 38.1028 482.414 38.8603 478.829 38.8603C476.404 38.8603 474.246 38.4608 472.356 37.6616C470.484 36.8457 469.013 35.7385 467.943 34.34C466.873 32.9247 466.338 31.4013 466.338 29.7696H473.667C473.738 31.0516 474.246 32.034 475.191 32.7166C476.137 33.3993 477.403 33.7406 478.99 33.7406C480.47 33.7406 481.584 33.4825 482.333 32.9664C483.1 32.4336 483.484 31.7426 483.484 30.8935Z" fill="black"/>
</svg>
