<svg width="26" height="26" viewBox="0 0 26 26" fill="none" xmlns="http://www.w3.org/2000/svg">
<path d="M22.4773 0H2.69728C1.20816 0 0 1.20816 0 2.69728V22.4773C0 23.9664 1.20816 25.1746 2.69728 25.1746H22.4773C23.9664 25.1746 25.1746 23.9664 25.1746 22.4773V2.69728C25.1746 1.20816 23.9664 0 22.4773 0ZM19.7295 8.92349C19.7407 9.08083 19.7407 9.24379 19.7407 9.40113C19.7407 14.2731 16.0319 19.8868 9.25503 19.8868C7.16464 19.8868 5.22597 19.2799 3.59637 18.2347C3.89419 18.2684 4.18078 18.2797 4.48422 18.2797C6.20936 18.2797 7.794 17.6953 9.05835 16.7063C7.43999 16.6725 6.08011 15.6105 5.61371 14.1495C6.18126 14.2338 6.69262 14.2338 7.27703 14.082C5.59123 13.7393 4.32688 12.2557 4.32688 10.4632V10.4182C4.81576 10.6936 5.38893 10.8622 5.9902 10.8846C5.4847 10.5484 5.07031 10.0922 4.784 9.55687C4.49769 9.02151 4.34836 8.4236 4.34936 7.81648C4.34936 7.13092 4.52918 6.50156 4.84948 5.95649C6.66452 8.19298 9.38989 9.654 12.4468 9.81134C11.9242 7.31074 13.7954 5.28217 16.0432 5.28217C17.1052 5.28217 18.0605 5.72609 18.7348 6.44537C19.5665 6.28803 20.3644 5.97896 21.0725 5.55751C20.7971 6.41165 20.2183 7.13092 19.4541 7.58609C20.1959 7.50742 20.9151 7.2995 21.5782 7.01292C21.0781 7.74905 20.4487 8.40089 19.7295 8.92349Z" fill="white"/>
</svg>
