<svg width="26" height="26" viewBox="0 0 26 26" fill="none" xmlns="http://www.w3.org/2000/svg">
<path d="M22.4773 0.449585H2.69728C1.20816 0.449585 0 1.65774 0 3.14686V22.9269C0 24.416 1.20816 25.6242 2.69728 25.6242H22.4773C23.9664 25.6242 25.1746 24.416 25.1746 22.9269V3.14686C25.1746 1.65774 23.9664 0.449585 22.4773 0.449585ZM19.7295 9.37307C19.7407 9.53042 19.7407 9.69338 19.7407 9.85072C19.7407 14.7227 16.0319 20.3364 9.25503 20.3364C7.16464 20.3364 5.22597 19.7295 3.59637 18.6843C3.89419 18.718 4.18078 18.7293 4.48422 18.7293C6.20936 18.7293 7.794 18.1448 9.05835 17.1558C7.43999 17.1221 6.08011 16.0601 5.61371 14.599C6.18126 14.6833 6.69262 14.6833 7.27703 14.5316C5.59123 14.1888 4.32688 12.7053 4.32688 10.9128V10.8678C4.81576 11.1432 5.38893 11.3117 5.9902 11.3342C5.4847 10.998 5.07031 10.5418 4.784 10.0065C4.49769 9.4711 4.34836 8.87318 4.34936 8.26607C4.34936 7.58051 4.52918 6.95115 4.84948 6.40607C6.66452 8.64256 9.38989 10.1036 12.4468 10.2609C11.9242 7.76033 13.7954 5.73175 16.0432 5.73175C17.1052 5.73175 18.0605 6.17568 18.7348 6.89495C19.5665 6.73761 20.3644 6.42855 21.0725 6.0071C20.7971 6.86124 20.2183 7.58051 19.4541 8.03568C20.1959 7.957 20.9151 7.74909 21.5782 7.4625C21.0781 8.19864 20.4487 8.85048 19.7295 9.37307Z" fill="#2B2B2B"/>
</svg>
