<svg width="26" height="27" viewBox="0 0 26 27" fill="none" xmlns="http://www.w3.org/2000/svg">
<path d="M12.1399 0.00392929C9.97291 0.0300888 5.31399 0.386195 2.70817 2.77683C0.76984 4.69745 0.093069 7.53701 0.0137467 11.0483C-0.0520739 14.5469 -0.131396 21.1172 6.20173 22.9061V25.6309C6.20173 25.6309 6.16207 26.7212 6.88272 26.9448C7.77045 27.2258 8.27592 26.387 9.11978 25.4858L10.6936 23.7061C15.0268 24.0664 18.3456 23.2361 18.7279 23.1129C19.6072 22.8319 24.5598 22.199 25.369 15.6279C26.1994 8.84161 24.9648 4.5658 22.7362 2.63169H22.7227C22.0502 2.0123 19.3473 0.0427466 13.3087 0.0208064C13.3087 0.0208064 12.8606 -0.00957238 12.1399 0.00308544V0.00392929ZM12.2142 1.91188C12.8294 1.90766 13.2032 1.93382 13.2032 1.93382C18.3144 1.94733 20.754 3.48567 21.3295 4.0038C23.2062 5.61218 24.1733 9.46691 23.4653 15.1325C22.7927 20.626 18.776 20.9737 18.0326 21.2108C17.7161 21.3121 14.793 22.0327 11.1104 21.7956C11.1104 21.7956 8.3679 25.1052 7.51055 25.9575C7.37469 26.1069 7.21604 26.1507 7.11478 26.1288C6.96964 26.0934 6.92576 25.9136 6.93419 25.6672L6.96035 21.145C1.58922 19.6598 1.90567 14.0558 1.96305 11.1285C2.02887 8.20113 2.57822 5.80627 4.21361 4.18438C6.41522 2.19373 10.3712 1.92538 12.2125 1.91188H12.2142ZM12.6192 4.83837C12.575 4.83792 12.5312 4.84623 12.4902 4.86282C12.4492 4.8794 12.4119 4.90393 12.3805 4.93499C12.349 4.96606 12.324 5.00304 12.3069 5.04381C12.2898 5.08458 12.281 5.12833 12.2809 5.17254C12.2809 5.36156 12.4344 5.51092 12.6192 5.51092C13.4559 5.49501 14.2875 5.6449 15.066 5.95194C15.8444 6.25898 16.5544 6.71711 17.155 7.29989C18.3811 8.49057 18.9785 10.0905 19.0013 12.1824C19.0013 12.3672 19.1507 12.5208 19.3397 12.5208V12.5073C19.4288 12.5075 19.5143 12.4725 19.5777 12.4099C19.6411 12.3473 19.6772 12.2622 19.6781 12.1731C19.7191 11.1885 19.5594 10.2058 19.2087 9.28478C18.8581 8.36376 18.3239 7.52365 17.6385 6.81552C16.3027 5.51008 14.6099 4.83752 12.6192 4.83752V4.83837ZM8.17128 5.61218C7.93243 5.57728 7.68883 5.62523 7.48101 5.74804H7.46329C6.98083 6.03085 6.5462 6.38829 6.17557 6.80708C5.86756 7.16319 5.70048 7.52351 5.6566 7.87034C5.63044 8.07708 5.64816 8.28383 5.70976 8.48129L5.7317 8.49479C6.07853 9.51416 6.53168 10.4947 7.08524 11.4179C7.79832 12.7149 8.67587 13.9143 9.69613 14.9866L9.72651 15.0304L9.77461 15.0659L9.80499 15.1013L9.84043 15.1317C10.9165 16.155 12.1189 17.0366 13.4184 17.7552C14.9036 18.5637 15.8048 18.9459 16.3457 19.1046V19.113C16.5043 19.1611 16.6486 19.183 16.7938 19.183C17.2548 19.1493 17.6912 18.9621 18.0334 18.6514C18.4503 18.2807 18.8038 17.8443 19.0798 17.3595V17.351C19.3389 16.8633 19.2511 16.4017 18.8773 16.0895C18.1286 15.4351 17.319 14.8538 16.4596 14.3537C15.8841 14.0414 15.2993 14.2305 15.0622 14.5469L14.5567 15.184C14.2977 15.5005 13.8268 15.4566 13.8268 15.4566L13.8133 15.465C10.302 14.568 9.36534 11.0128 9.36534 11.0128C9.36534 11.0128 9.32146 10.5293 9.64634 10.2829L10.2792 9.77323C10.5822 9.52682 10.7931 8.94288 10.4683 8.36652C9.97156 7.50592 9.39159 6.69616 8.73667 5.94888C8.59349 5.77271 8.39263 5.65285 8.1696 5.6105L8.17128 5.61218ZM13.2032 6.61468C12.7551 6.61468 12.7551 7.29145 13.2074 7.29145C13.7646 7.30049 14.3145 7.41924 14.8258 7.64092C15.3371 7.8626 15.7996 8.18286 16.1871 8.58339C16.5405 8.97326 16.8121 9.4301 16.9857 9.92684C17.1594 10.4236 17.2315 10.9501 17.198 11.4753C17.1995 11.5642 17.2358 11.6489 17.2991 11.7114C17.3623 11.7738 17.4475 11.809 17.5364 11.8094L17.5499 11.8272C17.6394 11.8265 17.7251 11.7906 17.7884 11.7273C17.8517 11.664 17.8876 11.5783 17.8883 11.4888C17.9186 10.1479 17.5018 9.02304 16.6841 8.12181C15.8622 7.22057 14.7154 6.7151 13.2513 6.61468H13.2032ZM13.7576 8.43403C13.296 8.42053 13.2783 9.1108 13.7357 9.1243C14.8479 9.18169 15.3879 9.74369 15.4588 10.8998C15.4604 10.9875 15.4962 11.0712 15.5586 11.1329C15.6211 11.1945 15.7052 11.2293 15.793 11.2297H15.8065C15.8516 11.2278 15.8959 11.2169 15.9367 11.1976C15.9776 11.1784 16.0142 11.1512 16.0445 11.1177C16.0747 11.0841 16.098 11.0449 16.1129 11.0023C16.1278 10.9597 16.1341 10.9145 16.1314 10.8694C16.052 9.36227 15.2301 8.51335 13.7711 8.43488H13.7576V8.43403Z" fill="white"/>
</svg>
