<svg width="26" height="27" viewBox="0 0 26 27" fill="none" xmlns="http://www.w3.org/2000/svg">
<path d="M12.1399 0.0035062C12.1399 0.00374069 12.1398 0.00393139 12.1395 0.00393423C9.97233 0.0301335 5.31383 0.386345 2.70817 2.77683C0.76984 4.69745 0.093069 7.53701 0.0137467 11.0483C-0.0467269 14.2627 -0.118598 20.07 4.78181 22.3797C5.59155 22.7614 6.20173 23.5243 6.20173 24.4194V25.5946C6.20173 25.6188 6.20126 25.6424 6.20135 25.6667C6.20204 25.8564 6.23994 26.7454 6.88272 26.9448C7.77045 27.2258 8.27592 26.387 9.11978 25.4858L10.0291 24.4575C10.4473 23.9846 11.0648 23.7419 11.6954 23.7699C15.5302 23.9403 18.3757 23.2264 18.7279 23.1129C19.6072 22.8319 24.5598 22.199 25.369 15.6279C26.1988 8.84663 24.9666 4.57213 22.7411 2.63598C22.7379 2.63319 22.7339 2.63169 22.7296 2.63169C22.7252 2.63169 22.7212 2.63035 22.718 2.62735C22.039 2.00445 19.3445 0.0508384 13.3462 0.0209679C13.3216 0.0208454 13.2967 0.0199867 13.2721 0.0186118C13.1516 0.0118716 12.7406 -0.00745209 12.1404 0.00307796C12.1401 0.00308206 12.1399 0.00327263 12.1399 0.0035062ZM12.2142 1.91188C12.6767 1.90871 13.0027 1.92271 13.1361 1.92985C13.1809 1.93225 13.2266 1.93386 13.2714 1.93409C18.3361 1.96102 20.7566 3.48798 21.3295 4.0038C23.2062 5.61218 24.1733 9.46691 23.4653 15.1325C22.7927 20.626 18.776 20.9737 18.0326 21.2108C17.7459 21.3025 15.3206 21.9025 12.1294 21.8384C11.4888 21.8256 10.8689 22.0874 10.4573 22.5784C9.59086 23.6118 8.10205 25.3695 7.51055 25.9575C7.37469 26.1069 7.21604 26.1507 7.11478 26.1288C6.96964 26.0934 6.92576 25.9136 6.93419 25.6672L6.9515 22.6762C6.95672 21.7726 6.3361 21.0084 5.53364 20.593C1.64902 18.5823 1.91132 13.7676 1.96305 11.1285C2.02887 8.20113 2.57822 5.80627 4.21361 4.18438C6.41522 2.19373 10.3712 1.92538 12.2125 1.91188H12.2142ZM12.6192 4.83794C12.6192 4.83818 12.619 4.83837 12.6188 4.83837C12.5748 4.83798 12.531 4.84628 12.4902 4.86282C12.4492 4.8794 12.4119 4.90393 12.3805 4.93499C12.349 4.96606 12.324 5.00304 12.3069 5.04381C12.2898 5.08458 12.281 5.12833 12.2809 5.17254C12.2809 5.36156 12.4344 5.51092 12.6192 5.51092C13.4559 5.49501 14.2875 5.6449 15.066 5.95194C15.8444 6.25898 16.5544 6.71711 17.155 7.29989C18.3811 8.49057 18.9785 10.0905 19.0013 12.1824C19.0013 12.365 19.1471 12.5171 19.3329 12.5208C19.3366 12.5208 19.3397 12.5178 19.3397 12.5141C19.3397 12.5103 19.3427 12.5073 19.3465 12.5073C19.4331 12.5058 19.5159 12.471 19.5777 12.4099C19.6411 12.3473 19.6772 12.2622 19.6781 12.1731C19.7191 11.1885 19.5594 10.2058 19.2087 9.28478C18.8581 8.36376 18.3239 7.52365 17.6385 6.81552C16.3028 5.51017 14.6101 4.83762 12.6197 4.83752C12.6194 4.83752 12.6192 4.83771 12.6192 4.83794ZM8.17047 5.61137C8.17073 5.61163 8.17051 5.61207 8.17015 5.61202C7.93459 5.57786 7.69448 5.62426 7.48869 5.74355C7.48365 5.74647 7.47794 5.74804 7.47212 5.74804C7.46634 5.74804 7.46066 5.74958 7.45568 5.75252C6.97625 6.03462 6.54425 6.3905 6.17557 6.80708C5.86756 7.16319 5.70048 7.52351 5.6566 7.87034C5.63099 8.0727 5.64743 8.27507 5.70591 8.46873C5.70835 8.47684 5.71373 8.48373 5.72095 8.48817C5.7279 8.49245 5.73314 8.49902 5.73577 8.50674C6.08207 9.52183 6.53384 10.4983 7.08524 11.4179C7.79559 12.7099 8.66916 13.9052 9.68444 14.9743C9.69221 14.9824 9.69936 14.9912 9.70579 15.0005L9.70632 15.0013C9.71969 15.0206 9.73615 15.0375 9.75506 15.0515C9.76805 15.061 9.77991 15.0721 9.79041 15.0843L9.79275 15.087C9.80089 15.0965 9.80976 15.1054 9.81926 15.1136L9.84043 15.1317C10.9165 16.155 12.1189 17.0366 13.4184 17.7552C14.8999 18.5617 15.8004 18.944 16.3417 19.1034C16.3441 19.1041 16.3457 19.1063 16.3457 19.1088C16.3457 19.1113 16.3473 19.1135 16.3497 19.1142C16.5068 19.1615 16.6499 19.183 16.7938 19.183C17.2548 19.1493 17.6912 18.9621 18.0334 18.6514C18.4492 18.2817 18.8019 17.8466 19.0776 17.3633C19.079 17.3608 19.0798 17.358 19.0798 17.3551C19.0798 17.3524 19.0805 17.3498 19.0817 17.3474C19.3384 16.861 19.2502 16.4009 18.8773 16.0895C18.1286 15.4351 17.319 14.8538 16.4596 14.3537C15.8841 14.0414 15.2993 14.2305 15.0622 14.5469L14.5567 15.184C14.3159 15.4782 13.8921 15.461 13.8336 15.4571C13.829 15.4568 13.8247 15.4579 13.8208 15.4603C13.816 15.4633 13.81 15.4642 13.8045 15.4628C10.7464 14.6767 9.64493 11.8733 9.41413 11.1725C9.37926 11.0666 9.35792 10.9565 9.36871 10.8456C9.38459 10.6823 9.44381 10.4365 9.64634 10.2829L10.2792 9.77323C10.5822 9.52682 10.7931 8.94288 10.4683 8.36652C9.97156 7.50592 9.39159 6.69616 8.73667 5.94888C8.59375 5.77303 8.39336 5.65328 8.17081 5.61073C8.17044 5.61066 8.17021 5.61111 8.17047 5.61137ZM13.2032 6.61468C12.7551 6.61468 12.7551 7.29145 13.2074 7.29145C13.7646 7.30049 14.3145 7.41924 14.8258 7.64092C15.3371 7.8626 15.7996 8.18286 16.1871 8.58339C16.5405 8.97326 16.8121 9.4301 16.9857 9.92684C17.1594 10.4236 17.2315 10.9501 17.198 11.4753C17.1995 11.5642 17.2358 11.6489 17.2991 11.7114C17.3597 11.7712 17.4405 11.806 17.5253 11.8092C17.5323 11.8095 17.5389 11.8127 17.5431 11.8182C17.5474 11.8239 17.554 11.8272 17.5611 11.8269C17.6466 11.8235 17.7278 11.788 17.7884 11.7273C17.8517 11.664 17.8876 11.5783 17.8883 11.4888C17.9186 10.1479 17.5018 9.02304 16.6841 8.12181C15.8622 7.22057 14.7154 6.7151 13.2513 6.61468H13.2032ZM13.7576 8.43445C13.7576 8.43422 13.7574 8.43403 13.7572 8.43402C13.296 8.42096 13.2784 9.11081 13.7357 9.1243C14.8479 9.18169 15.3879 9.74369 15.4588 10.8998C15.4604 10.9875 15.4962 11.0712 15.5586 11.1329C15.6211 11.1945 15.7052 11.2293 15.793 11.2297H15.8065C15.8516 11.2278 15.8959 11.2169 15.9367 11.1976C15.9776 11.1784 16.0142 11.1512 16.0445 11.1177C16.0747 11.0841 16.098 11.0449 16.1129 11.0023C16.1278 10.9597 16.1341 10.9145 16.1314 10.8694C16.052 9.36227 15.2301 8.51335 13.7711 8.43488H13.758C13.7578 8.43488 13.7576 8.43468 13.7576 8.43445Z" fill="#2B2B2B"/>
</svg>
