<svg width="27" height="27" viewBox="0 0 27 27" fill="none" xmlns="http://www.w3.org/2000/svg">
<path d="M23.0546 3.9252C23.0549 3.9252 23.0551 3.92482 23.0548 3.9246C21.8115 2.67559 20.331 1.68535 18.6995 1.01158C17.0677 0.337693 15.3175 -0.00614969 13.5509 8.3245e-05C6.14823 8.3245e-05 0.115269 6.00419 0.108488 13.3752C0.108488 15.4557 0.590342 17.4864 1.50648 19.3311C1.74387 19.8091 1.82088 20.3557 1.67983 20.8704L0.914672 23.6624C0.50795 25.1465 1.85956 26.5147 3.34854 26.1262L6.36262 25.3397C6.85334 25.2116 7.37163 25.2808 7.83093 25.4958C9.61741 26.3323 11.5702 26.7683 13.5509 26.7688H13.5576C20.962 26.7688 26.9932 20.7647 27 13.387C27.0017 11.6287 26.6539 9.88743 25.9766 8.26354C25.2994 6.63991 24.3063 5.1657 23.0543 3.9258C23.0541 3.92558 23.0543 3.9252 23.0546 3.9252ZM13.5509 24.5042C11.5489 24.5049 9.58375 23.9686 7.862 22.9517C7.60175 22.7963 7.28997 22.7518 6.99666 22.8284L6.5153 22.9541C5.05414 23.3355 3.72805 21.9921 4.12843 20.536L4.22409 20.1881C4.30847 19.8812 4.26059 19.5531 4.09204 19.2831C2.97293 17.5118 2.38106 15.461 2.38504 13.3684C2.38504 7.24956 7.39754 2.25795 13.5576 2.25795C15.0252 2.25533 16.4787 2.54191 17.8345 3.10118C19.1902 3.66044 20.4214 4.48133 21.4569 5.5165C22.4961 6.54765 23.3199 7.7734 23.8808 9.12307C24.4418 10.4727 24.7287 11.9196 24.7251 13.3802C24.7184 19.521 19.7059 24.5042 13.5509 24.5042ZM19.6787 16.1781C19.3448 16.011 17.6954 15.2027 17.3852 15.088C17.0767 14.9783 16.8513 14.9209 16.6309 15.255C16.4054 15.5875 15.7613 16.3452 15.5681 16.5628C15.3748 16.7873 15.1748 16.8126 14.8391 16.6472C14.5052 16.4785 13.422 16.1275 12.1405 14.985C11.1404 14.0991 10.4708 13.0022 10.2708 12.6698C10.0775 12.3357 10.2521 12.1568 10.4199 11.9897C10.5674 11.8412 10.7539 11.5982 10.9217 11.4059C11.0912 11.2135 11.1472 11.0717 11.2573 10.849C11.3675 10.6229 11.315 10.4305 11.2319 10.2634C11.1472 10.0964 10.4776 8.44768 10.1945 7.78281C9.92328 7.12637 9.64697 7.2175 9.44017 7.20906C9.24692 7.19725 9.02147 7.19725 8.79602 7.19725C8.62576 7.20146 8.45822 7.24066 8.30391 7.31239C8.1496 7.38412 8.01184 7.48682 7.8993 7.61406C7.59078 7.94818 6.72796 8.75649 6.72796 10.4052C6.72796 12.0539 7.9315 13.6384 8.10102 13.8629C8.26714 14.0873 10.464 17.4606 13.8356 18.9118C14.6323 19.2578 15.2595 19.462 15.7494 19.6172C16.5546 19.8737 17.2818 19.8349 17.8616 19.7522C18.5057 19.6543 19.8466 18.9422 20.1296 18.1609C20.4076 17.3779 20.4076 16.7097 20.3229 16.5696C20.2398 16.4278 20.0144 16.3452 19.6787 16.1781Z" fill="#2B2B2B"/>
</svg>
